<svg width="342" height="344" viewBox="0 0 342 344" fill="none" xmlns="http://www.w3.org/2000/svg">
<path d="M118.288 12.5433C150.229 34.7872 162.119 68.5035 168.935 105.149C169.707 110.09 170.397 115.031 171.057 119.99C171.394 117.579 171.731 115.169 172.077 112.685C177.325 77.1559 185.929 40.9064 215.238 17.1645C236.927 2.2815 257.725 -1.11327 283.544 1.26373C303.516 5.82167 320.267 18.225 331.82 34.9535C343.001 53.7417 344.063 75.7773 339.381 96.9417C330.87 122.519 312.263 141.739 288.717 154.441C265.149 165.464 239.131 169.661 213.505 172.992C214.711 173.129 215.917 173.266 217.159 173.408C241.352 176.254 263.526 179.308 285.666 189.953C287.395 190.759 289.124 191.565 290.906 192.396C313.367 203.807 330.05 220.692 338.328 244.546C343.524 263.885 342.719 283.966 334.481 302.318C324.48 319.467 309.006 334.493 290.11 341.192C266.052 346.351 241.153 345.015 219.872 332C193.359 313.969 181.95 285.105 175.974 254.641C174.949 248.634 174.007 242.632 173.18 236.595C170.385 244.78 167.855 253.008 165.438 261.311C156.085 292.795 142.049 318.819 112.883 335.834C93.1421 344.906 67.67 346.817 47.0305 339.288C25.345 328.839 12.1627 314.381 3.09877 292.165C0.865179 283.866 0.451618 276.292 0.470662 267.734C0.475792 265.341 0.475792 265.341 0.481025 262.899C0.756462 250.422 2.98825 240.879 9.7561 230.235C11.0256 228.049 12.295 225.862 13.6029 223.61C37.2419 192.575 72.0073 179.898 109.508 174.45C113.75 173.934 117.993 173.436 122.243 172.992C120.962 172.726 119.68 172.461 118.361 172.187C76.097 163.315 39.071 154.069 11.8785 117.869C0.464159 97.7352 -3.12551 72.9128 2.86664 50.3657C4.87835 45.7555 7.10325 41.5749 9.7561 37.3055C10.9818 35.1191 12.2075 32.9328 13.4703 30.6802C39.1729 -2.12668 82.8101 -9.3554 118.288 12.5433Z" fill="#080033"/>
</svg>
