<svg width="90" height="90" viewBox="0 0 90 90" fill="none" xmlns="http://www.w3.org/2000/svg">
<path d="M45.0071 5C37.0944 4.99804 29.3589 7.34263 22.7788 11.7372C16.1987 16.1318 11.0696 22.3791 8.04025 29.6889C5.01085 36.9986 4.2172 45.0426 5.75968 52.8035C7.30216 60.5643 11.1115 67.6934 16.7059 73.2892C22.3003 78.885 29.4285 82.6961 37.1889 84.2405C44.9494 85.7849 52.9936 84.9932 60.3041 81.9657C67.6146 78.9381 73.8631 73.8105 78.2594 67.2315C82.6556 60.6525 85.0021 52.9176 85.0021 45.005C85.0021 34.3967 80.7887 24.2228 73.2884 16.7207C65.7882 9.21858 55.6153 5.00263 45.0071 5ZM37.6875 69.519C35.4631 71.3261 32.7528 72.4331 29.8993 72.6999C27.0458 72.9666 24.1772 72.3813 21.6564 71.0177C19.1356 69.6542 17.0757 67.5738 15.7372 65.0396C14.3988 62.5054 13.8419 59.6312 14.1369 56.7805C14.432 53.9297 15.5657 51.2305 17.3948 49.0242C19.2239 46.8178 21.6662 45.2033 24.4129 44.385C27.1595 43.5667 30.0871 43.5812 32.8255 44.4267C35.5639 45.2722 37.9901 46.9108 39.7972 49.1352C42.2205 52.118 43.3596 55.9413 42.964 59.764C42.5683 63.5867 40.6703 67.0957 37.6875 69.519ZM30.5562 24.532C30.5542 21.6656 31.4024 18.8631 32.9934 16.4788C34.5845 14.0945 36.8469 12.2357 39.4945 11.1374C42.1422 10.0392 45.056 9.7508 47.8676 10.3088C50.6791 10.8668 53.262 12.2461 55.2895 14.2722C57.3171 16.2984 58.6981 18.8803 59.258 21.6915C59.818 24.5027 59.5316 27.4167 58.4351 30.0651C57.3387 32.7135 55.4814 34.9772 53.0982 36.5698C50.715 38.1625 47.9131 39.0126 45.0467 39.0126C41.2053 39.0126 37.521 37.4873 34.8038 34.772C32.0866 32.0566 30.5588 28.3734 30.5562 24.532ZM72.7005 67.3994C70.8942 69.6252 68.4683 71.2653 65.7296 72.1121C62.991 72.9589 60.0628 72.9745 57.3153 72.1568C54.5679 71.3391 52.1247 69.7248 50.2948 67.5183C48.465 65.3118 47.3307 62.6121 47.0354 59.7608C46.7402 56.9095 47.2973 54.0347 48.6362 51.5001C49.9751 48.9654 52.0357 46.8848 54.5573 45.5215C57.0789 44.1582 59.9482 43.5734 62.8022 43.8411C65.6562 44.1088 68.3667 45.217 70.5908 47.0255C73.5707 49.4486 75.4668 52.9555 75.8624 56.7758C76.258 60.5961 75.1207 64.4172 72.7005 67.3994Z" fill="black"/>
</svg>
