<svg width="91" height="90" viewBox="0 0 91 90" fill="none" xmlns="http://www.w3.org/2000/svg">
<path d="M45.4518 25.2C50.8445 25.2 55.2161 20.6781 55.2161 15.1C55.2161 9.52192 50.8445 5 45.4518 5C40.0591 5 35.6875 9.52192 35.6875 15.1C35.6875 20.6781 40.0591 25.2 45.4518 25.2Z" fill="black"/>
<path d="M19.0299 28.16C24.4226 28.16 28.7942 23.638 28.7942 18.06C28.7942 12.4819 24.4226 7.95996 19.0299 7.95996C13.6372 7.95996 9.26562 12.4819 9.26562 18.06C9.26562 23.638 13.6372 28.16 19.0299 28.16Z" fill="black"/>
<path d="M71.8893 28.16C77.282 28.16 81.6536 23.638 81.6536 18.06C81.6536 12.4819 77.282 7.95996 71.8893 7.95996C66.4966 7.95996 62.125 12.4819 62.125 18.06C62.125 23.638 66.4966 28.16 71.8893 28.16Z" fill="black"/>
<path d="M45.4518 85.7898C50.8445 85.7898 55.2161 81.2679 55.2161 75.6898C55.2161 70.1118 50.8445 65.5898 45.4518 65.5898C40.0591 65.5898 35.6875 70.1118 35.6875 75.6898C35.6875 81.2679 40.0591 85.7898 45.4518 85.7898Z" fill="black"/>
<path d="M19.0299 82.8299C24.4226 82.8299 28.7942 78.308 28.7942 72.7299C28.7942 67.1518 24.4226 62.6299 19.0299 62.6299C13.6372 62.6299 9.26562 67.1518 9.26562 72.7299C9.26562 78.308 13.6372 82.8299 19.0299 82.8299Z" fill="black"/>
<path d="M71.8893 82.8299C77.282 82.8299 81.6536 78.308 81.6536 72.7299C81.6536 67.1518 77.282 62.6299 71.8893 62.6299C66.4966 62.6299 62.125 67.1518 62.125 72.7299C62.125 78.308 66.4966 82.8299 71.8893 82.8299Z" fill="black"/>
<path d="M6.40625 32.3398V58.4498H32.8375L45.4634 45.3998L58.0797 58.4498H84.5109V32.3398H6.40625Z" fill="black"/>
</svg>
