<svg width="28" height="28" viewBox="0 0 28 28" fill="none" xmlns="http://www.w3.org/2000/svg">
<path d="M27.5948 13.9998L0.549194 0.477051L7.31736 13.9998L0.549194 27.5226L27.5948 13.9998ZM14.0855 11.1905C14.6377 11.1938 15.1766 11.3603 15.6343 11.6689C16.092 11.9776 16.4481 12.4146 16.6577 12.925C16.8673 13.4353 16.9211 13.9962 16.8123 14.5371C16.7036 15.0779 16.437 15.5746 16.0463 15.9644C15.6556 16.3543 15.1582 16.6199 14.6166 16.728C14.0751 16.836 13.5137 16.7816 13.0031 16.5715C12.4924 16.3615 12.0554 16.0053 11.747 15.5477C11.4386 15.09 11.2726 14.5515 11.27 13.9998C11.2682 13.6301 11.3398 13.2637 11.4807 12.9218C11.6216 12.58 11.829 12.2694 12.0908 12.0081C12.3527 11.7468 12.6638 11.54 13.0062 11.3997C13.3486 11.2594 13.7154 11.1882 14.0855 11.1905Z" fill="#FFFDD2"/>
</svg>
