<svg width="260" height="390" viewBox="0 0 260 390" fill="none" xmlns="http://www.w3.org/2000/svg">
<g clip-path="url(#clip0_19192_4808)">
<rect width="260" height="390" fill="#F3F3F1"/>
<path d="M101.02 248.901C104.274 251.393 106.527 254.503 107.227 258.605C107.344 260.226 107.299 261.853 107.274 263.477C107.271 263.917 107.267 264.356 107.264 264.796C107.256 265.864 107.243 266.932 107.227 267.999C107.381 267.996 107.535 267.992 107.694 267.989C107.897 267.986 108.101 267.983 108.311 267.981C108.512 267.977 108.713 267.974 108.921 267.97C110.504 268.049 111.727 268.945 112.813 270.031C113.616 271.315 114.11 272.575 114.12 274.098C114.122 274.399 114.122 274.399 114.125 274.706C114.126 274.924 114.127 275.142 114.127 275.367C114.129 275.598 114.131 275.829 114.132 276.068C114.137 276.833 114.14 277.599 114.143 278.364C114.144 278.626 114.145 278.888 114.146 279.158C114.151 280.545 114.155 281.933 114.157 283.32C114.16 284.75 114.169 286.179 114.179 287.608C114.186 288.71 114.188 289.812 114.189 290.914C114.19 291.441 114.193 291.968 114.197 292.494C114.204 293.234 114.203 293.973 114.202 294.712C114.207 295.035 114.207 295.035 114.211 295.363C114.196 297.139 113.792 298.859 112.641 300.254C110.462 302.315 108.077 302.682 105.172 302.662C104.687 302.665 104.687 302.665 104.192 302.668C103.313 302.672 102.434 302.67 101.555 302.667C100.63 302.665 99.7056 302.667 98.781 302.669C97.2289 302.67 95.6769 302.668 94.1249 302.663C92.3361 302.658 90.5475 302.659 88.7587 302.665C87.2169 302.67 85.675 302.67 84.1332 302.668C83.215 302.666 82.2968 302.666 81.3786 302.669C80.3541 302.673 79.3298 302.668 78.3053 302.662C78.0051 302.664 77.7048 302.666 77.3954 302.668C74.9389 302.643 72.8689 302.116 71.0373 300.409C69.9328 299.173 69.3676 297.82 69.3574 296.167C69.3556 295.963 69.3538 295.76 69.3519 295.551C69.3513 295.33 69.3506 295.109 69.3499 294.882C69.3482 294.648 69.3465 294.414 69.3448 294.172C69.3398 293.397 69.3368 292.623 69.3343 291.848C69.3333 291.583 69.3322 291.318 69.3312 291.044C69.3259 289.641 69.3222 288.237 69.3199 286.833C69.3171 285.387 69.3083 283.94 69.2982 282.493C69.2916 281.378 69.2895 280.263 69.2886 279.148C69.2873 278.615 69.2844 278.082 69.2797 277.548C69.2735 276.8 69.2737 276.053 69.2755 275.305C69.2722 275.086 69.269 274.868 69.2656 274.644C69.2814 272.792 69.8794 271.404 70.8389 269.84C72.1123 268.601 73.2687 267.966 75.0581 267.965C75.4556 267.974 75.853 267.984 76.2503 267.999C76.245 267.733 76.2396 267.467 76.2342 267.193C76.2155 266.189 76.204 265.185 76.1945 264.181C76.1894 263.75 76.1826 263.318 76.1737 262.887C76.0747 257.955 77.0786 254.21 80.527 250.496C86.0148 245.247 94.8026 244.566 101.02 248.901Z" fill="#8D5AC4"/>
<path d="M43.9253 204.902C45.483 205.884 46.4492 207.198 46.9722 208.965C47.4935 212.575 46.3546 215.946 44.6871 219.121C44.8965 218.88 45.106 218.639 45.3218 218.391C47.5803 216.133 50.8323 214.107 54.0657 213.932C56.126 214.002 57.9907 214.841 59.4136 216.328C60.8516 218.361 61.7654 220.406 61.4449 222.93C60.935 224.987 60.1341 226.645 58.3712 227.872C56.3685 229.061 54.4675 229.36 52.1773 229.325C51.9734 229.325 51.7695 229.325 51.5594 229.324C50.2644 229.315 49.0157 229.207 47.7339 229.023C47.9427 229.128 48.1516 229.233 48.3667 229.341C51.4607 230.941 54.5731 232.893 55.9363 236.255C56.4498 238.115 56.3194 239.979 55.4334 241.695C54.1733 243.687 52.6348 244.994 50.4476 245.861C48.213 246.277 46.1526 246.246 44.2209 244.964C41.1381 242.541 40.1631 238.662 39.6754 234.944C39.6535 234.75 39.6315 234.555 39.6089 234.355C39.5835 234.496 39.558 234.637 39.5318 234.781C38.0699 242.746 38.0699 242.746 34.5308 245.273C32.8115 246.271 30.9383 246.349 29.0173 245.86C26.4191 244.903 24.5037 243.247 23.2637 240.767C22.7485 238.087 23.1339 236.141 24.6285 233.848C26.233 231.666 29.095 230.172 31.4839 229.023C31.2522 229.051 31.2522 229.051 31.0158 229.079C27.3735 229.465 24.284 229.601 20.9944 227.802C19.1395 226.292 18.2316 224.794 17.9287 222.411C17.7985 219.989 18.5115 218.206 19.9669 216.286C21.1715 214.964 22.5592 214.183 24.3379 213.947C28.4375 213.782 31.2519 216.166 34.2769 218.613C34.1545 218.347 34.0321 218.08 33.906 217.805C32.5361 214.781 31.1765 211.614 32.2139 208.243C32.875 206.799 33.7093 205.769 35.0386 204.902C35.1967 204.798 35.3548 204.693 35.5177 204.585C37.9976 203.225 41.5354 203.486 43.9253 204.902Z" fill="#D96043"/>
<path d="M160.173 322.007C163.002 324.026 164.314 326.726 164.968 330.058C165.05 330.604 165.13 331.15 165.204 331.697C165.247 331.357 165.247 331.357 165.292 331.009C165.739 327.97 166.768 324.818 169.139 322.707C171.505 321.042 173.638 320.468 176.501 320.69C179.26 321.252 181.461 322.701 183.147 324.936C184.515 327.155 185.128 329.44 184.573 331.983C184.124 333.625 183.565 334.911 182.384 336.147C182.232 336.308 182.079 336.469 181.922 336.635C180.591 337.924 179.189 338.601 177.442 339.191C177.275 339.249 177.107 339.307 176.935 339.366C175.629 339.752 174.317 339.704 172.97 339.66C172.97 339.814 172.97 339.969 172.97 340.128C173.176 340.116 173.176 340.116 173.386 340.104C176.502 340.001 179.175 341.055 181.752 342.748C183.609 344.682 184.732 346.931 184.826 349.613C184.723 352.642 183.281 355.148 181.106 357.214C178.87 358.988 176.482 359.538 173.676 359.332C171.095 358.88 169.071 357.454 167.557 355.351C166.085 353.046 165.501 350.306 165.204 347.623C165.148 348.005 165.148 348.005 165.091 348.395C164.564 351.781 163.666 355.15 160.894 357.415C158.63 359.055 156.447 359.555 153.672 359.332C151.239 358.777 148.948 357.442 147.552 355.351C146.004 352.599 145.344 349.938 146.102 346.81C147.092 344.244 148.832 342.465 151.318 341.299C153.076 340.61 154.798 340.085 156.702 340.114C156.977 340.117 156.977 340.117 157.259 340.12C157.395 340.123 157.532 340.125 157.673 340.128C157.673 339.974 157.673 339.819 157.673 339.66C157.518 339.668 157.364 339.676 157.205 339.685C153.923 339.781 150.751 338.793 148.273 336.571C146.19 334.302 145.736 331.617 145.864 328.676C146.066 326.254 147.535 324.356 149.259 322.739C152.386 320.206 156.754 319.917 160.173 322.007Z" fill="#D96043"/>
<path d="M96.4177 253.61C98.57 254.958 99.8225 256.712 100.623 259.113C100.623 262.046 100.623 264.979 100.623 268C94.7578 268 88.8926 268 82.8496 268C82.8496 257.368 82.8496 257.368 85.3341 254.782C88.413 252.083 92.8284 251.66 96.4177 253.61Z" fill="#F3F3F1"/>
<path d="M93.8604 277.634C95.1258 278.392 96.0859 279.267 96.5621 280.695C96.7309 282.588 96.7257 283.99 95.5465 285.52C95.3286 285.669 95.1107 285.818 94.8863 285.972C94.2103 286.489 94.2103 286.489 94.1095 287.303C94.1056 287.596 94.1016 287.888 94.0975 288.19C94.0864 288.666 94.0864 288.666 94.0751 289.152C94.0737 289.482 94.0722 289.813 94.0707 290.153C94.0643 290.488 94.0579 290.822 94.0513 291.167C94.0364 291.993 94.029 292.819 94.0231 293.645C92.4311 293.645 90.8391 293.645 89.1988 293.645C89.1952 293.146 89.1916 292.648 89.1879 292.134C89.176 291.479 89.1638 290.824 89.1512 290.169C89.1498 289.841 89.1483 289.512 89.1468 289.174C89.1394 288.857 89.132 288.541 89.1245 288.214C89.1205 287.923 89.1165 287.632 89.1124 287.332C88.8972 286.308 88.4523 285.943 87.6754 285.266C86.6278 283.844 86.6956 282.399 86.9137 280.695C87.4489 279.241 88.347 278.388 89.7067 277.649C91.0397 277.204 92.5377 277.106 93.8604 277.634Z" fill="#080033"/>
<path d="M11.7119 350.922C20.7299 350.922 29.748 350.922 39.0392 350.922C39.0392 360.037 39.0392 369.152 39.0392 378.543C30.0212 378.543 21.0032 378.543 11.7119 378.543C11.7119 369.428 11.7119 360.313 11.7119 350.922Z" fill="#0BA960"/>
<path d="M39.0392 350.922H11.7119L39.0392 378.543V350.922Z" fill="#D96043"/>
<path d="M220.643 343.128C222.827 344.323 223.852 346.258 224.741 348.509C224.83 348.31 224.919 348.11 225.011 347.905C226.203 345.36 227.425 343.736 230.058 342.669C231.996 342.021 234.051 342.342 235.881 343.177C237.801 344.234 239.016 345.759 239.756 347.813C240.228 349.68 240.168 351.541 239.296 353.272C238.475 354.516 237.436 355.584 236.388 356.635C236.67 356.509 236.952 356.384 237.242 356.254C239.065 355.577 240.867 355.689 242.675 356.369C244.867 357.431 246.237 359.019 247.081 361.289C247.686 363.407 247.246 365.365 246.262 367.3C245.104 368.979 243.65 370.202 241.705 370.855C238.656 371.242 236.696 370.668 234.109 369.078C233.888 368.946 233.666 368.813 233.438 368.677C232.981 368.397 232.531 368.104 232.083 367.808C232.194 367.91 232.304 368.012 232.418 368.117C234.067 369.695 235.637 371.445 235.707 373.823C235.688 375.473 235.19 376.628 234.03 377.791C232.473 378.772 231.126 379.256 229.298 378.981C227.382 378.424 226.427 377.094 225.459 375.426C225.247 374.918 225.247 374.918 225.247 373.903C225.08 373.903 224.913 373.903 224.741 373.903C224.713 374.089 224.685 374.275 224.656 374.466C224.292 375.993 223.289 377.301 222.035 378.22C220.653 379.057 219.486 379.146 217.905 378.981C216.331 378.521 215.256 377.542 214.36 376.188C213.685 374.711 213.644 373.461 214.202 371.935C214.997 370.455 216.244 369.264 217.398 368.062C217.18 368.197 216.963 368.332 216.739 368.471C214.261 369.97 211.522 371.502 208.536 371.109C206.147 370.423 204.25 369.237 202.968 367.078C202.022 365.078 201.807 362.88 202.41 360.736C203.334 358.671 204.942 357.186 206.986 356.254C209.193 355.482 211.223 355.752 213.347 356.635C213.16 356.496 212.974 356.358 212.781 356.215C212.06 355.602 211.556 354.991 211.005 354.223C210.831 353.984 210.658 353.746 210.479 353.501C209.425 351.822 209.671 349.665 209.802 347.747C210.249 345.887 211.808 344.325 213.396 343.34C215.777 342.122 218.186 341.996 220.643 343.128Z" fill="#080033"/>
<path d="M104.495 358.7C105.822 358.676 107.15 358.659 108.478 358.648C108.929 358.643 109.379 358.637 109.83 358.629C110.481 358.617 111.132 358.612 111.784 358.608C111.983 358.603 112.182 358.598 112.387 358.594C114.498 358.593 116.126 359.399 117.661 360.821C119.185 362.527 119.345 364.491 119.298 366.695C119.159 368.677 118.356 370.136 116.983 371.556C115.095 373.187 113.194 373.693 110.759 373.545C108.648 373.294 107.093 372.44 105.665 370.866C104.504 369.288 104.461 367.778 104.472 365.897C104.472 365.691 104.473 365.485 104.473 365.272C104.474 364.617 104.477 363.961 104.48 363.306C104.481 362.86 104.482 362.415 104.483 361.969C104.486 360.879 104.49 359.789 104.495 358.7Z" fill="#080033"/>
<path d="M100.475 343.881C101.876 344.739 103.204 345.814 103.69 347.439C103.799 347.963 103.821 348.432 103.82 348.967C103.82 349.169 103.82 349.37 103.82 349.577C103.818 349.793 103.817 350.008 103.816 350.23C103.816 350.452 103.815 350.674 103.815 350.902C103.814 351.61 103.811 352.318 103.808 353.026C103.807 353.507 103.806 353.987 103.805 354.468C103.802 355.645 103.798 356.821 103.793 357.998C102.574 358.022 101.355 358.039 100.136 358.05C99.7223 358.054 99.3086 358.061 98.895 358.069C95.6898 358.131 93.0972 358.03 90.6624 355.695C89.0864 353.887 88.9009 351.896 89.0529 349.575C89.3719 347.559 90.3345 345.989 91.9182 344.703C94.3847 342.985 97.7016 342.563 100.475 343.881Z" fill="#080033"/>
<path d="M95.1594 358.674C95.3514 358.674 95.5434 358.674 95.7412 358.674C96.0505 358.676 96.0505 358.676 96.3661 358.678C96.684 358.678 96.684 358.678 97.0083 358.679C97.6853 358.68 98.3623 358.683 99.0394 358.686C99.4983 358.687 99.9573 358.688 100.416 358.689C101.541 358.692 102.667 358.696 103.792 358.701C103.815 360.057 103.832 361.414 103.843 362.771C103.848 363.231 103.854 363.692 103.863 364.153C103.874 364.818 103.879 365.484 103.883 366.149C103.888 366.352 103.893 366.555 103.898 366.764C103.899 368.446 103.543 370.05 102.438 371.364C100.828 372.952 98.885 373.485 96.6704 373.587C94.4952 373.523 92.7791 372.732 91.1721 371.277C89.5863 369.532 88.9679 367.494 89.0023 365.178C89.1494 363.307 89.7988 361.655 91.1574 360.338C92.398 359.451 93.6002 358.669 95.1594 358.674Z" fill="#080033"/>
<path d="M115.139 343.829C116.987 344.901 118.377 346.402 119.087 348.437C119.572 350.662 119.481 352.974 118.297 354.957C117.727 355.63 117.727 355.63 117.127 356.127C116.881 356.366 116.881 356.366 116.63 356.609C114.18 358.26 111.608 358.113 108.778 358.057C108.361 358.052 107.944 358.048 107.528 358.044C106.516 358.034 105.504 358.018 104.493 357.999C104.475 356.742 104.463 355.485 104.454 354.229C104.451 353.802 104.446 353.375 104.44 352.949C104.359 347.16 104.359 347.16 106.34 345.073C108.748 343.063 112.279 342.506 115.139 343.829Z" fill="#080033"/>
<path d="M38.2 295.534L32.3003 295.58V312.947H32.4857H50.4746L50.5325 307.266C50.5445 306.43 50.5575 305.593 50.5623 304.757L50.5651 304.07L50.5795 303.343C50.5805 301.14 50.0198 299.392 48.4643 297.79C46.5241 296.032 44.4896 295.464 41.8953 295.502L41.5185 295.508C41.0293 295.509 40.54 295.511 40.0507 295.513L38.2 295.534Z" fill="#080033"/>
<path d="M26.3786 330.414L32.2783 330.367L32.2783 313L32.0929 313L14.1041 313L14.0461 318.681C14.0341 319.518 14.0211 320.354 14.0163 321.191L14.0135 321.877L13.9991 322.604C13.9981 324.808 14.5589 326.555 16.1143 328.157C18.0545 329.915 20.089 330.484 22.6833 330.445L23.0601 330.44C23.5493 330.438 24.0386 330.436 24.5279 330.434L26.3786 330.414Z" fill="#0BA960"/>
<path d="M239.449 13.8408C240.467 14.5844 241.137 15.4348 241.526 16.6471C241.841 19.6947 240.844 22.3883 239.686 25.1331C239.825 25.0005 239.963 24.8679 240.106 24.7313C244.298 20.7866 244.298 20.7866 247.16 20.6831C248.806 20.7452 249.763 21.1857 250.89 22.3907C251.949 23.7193 252.281 24.9439 252.225 26.649C252.053 28.0075 251.391 28.9914 250.337 29.8289C248.127 31.2239 245.489 31.411 242.957 31.3424C242.687 31.3424 242.417 31.3424 242.139 31.3424C242.322 31.4552 242.505 31.5681 242.693 31.6844C247.36 34.61 247.36 34.61 248.067 37.1377C248.239 38.4562 248.32 39.8257 247.534 40.9555C246.392 42.245 245.254 43.2187 243.522 43.4262C242.08 43.4983 241.019 43.4213 239.868 42.4956C237.903 40.5099 237.146 37.7521 236.62 35.068C236.545 35.3905 236.545 35.3905 236.47 35.7196C235.776 38.6753 235.067 41.184 232.493 43.0624C231.372 43.6104 230.052 43.5219 228.852 43.347C227.128 42.7199 226.093 41.7914 225.211 40.1906C224.762 38.7555 224.777 37.6117 225.428 36.2451C226.134 34.9115 226.989 34.0413 228.201 33.1922C228.321 33.1051 228.442 33.018 228.567 32.9283C230.793 31.3424 230.793 31.3424 231.714 31.3424C231.646 31.2741 231.579 31.2058 231.509 31.1354C231.399 31.1642 231.289 31.193 231.176 31.2227C228.616 31.8558 225.426 31.2403 223.154 29.9882C222.225 29.3434 221.505 28.4703 221.084 27.4098C220.857 25.6179 221.056 24.129 222.106 22.6494C223.034 21.5968 224.125 20.8846 225.532 20.7211C228.314 20.6095 230.094 21.9373 232.123 23.6843C232.472 24.022 232.809 24.3676 233.145 24.7192C233.061 24.5017 232.977 24.2843 232.891 24.0602C230.863 18.7405 230.863 18.7405 231.829 15.9486C232.4 14.6808 233.244 14.062 234.397 13.3614C236.075 12.7274 237.921 12.9526 239.449 13.8408Z" fill="#080033"/>
<path d="M209.012 136C223.883 136 238.755 136 254.077 136C254.077 151.331 254.077 166.663 254.077 182.459C239.205 182.459 224.334 182.459 209.012 182.459C209.012 167.127 209.012 151.796 209.012 136Z" fill="#080033"/>
<path d="M209.012 136.465C216.524 136.465 224.037 136.465 231.777 136.465C231.777 143.977 231.777 151.49 231.777 159.23C224.264 159.23 216.752 159.23 209.012 159.23C209.012 151.717 209.012 144.205 209.012 136.465Z" fill="#0BA960"/>
<path d="M231.775 159.229C239.134 159.229 246.494 159.229 254.076 159.229C254.076 166.895 254.076 174.561 254.076 182.459C246.717 182.459 239.357 182.459 231.775 182.459C231.775 174.793 231.775 167.128 231.775 159.229Z" fill="#8D5AC4"/>
<path d="M232.761 190.877C233.556 191.523 234.319 192.198 235.077 192.887C235.287 193.076 235.497 193.264 235.713 193.459C240.186 197.682 243.193 202.978 245.257 208.701C245.414 209.137 245.414 209.137 245.574 209.581C248.743 219.113 247.666 229.907 243.271 238.847C242.932 239.45 242.59 240.045 242.216 240.627C241.97 241.213 242.088 241.458 242.278 242.059C242.44 242.422 242.613 242.78 242.793 243.134C247.651 252.886 248.587 263.071 245.181 273.461C243.118 279.443 239.547 284.568 235.077 289.007C234.856 289.23 234.635 289.453 234.407 289.683C226.377 297.367 215.799 299.955 205.002 299.962C204.426 299.964 203.85 299.965 203.275 299.967C202.073 299.97 200.871 299.971 199.669 299.971C198.146 299.971 196.623 299.977 195.1 299.986C193.911 299.992 192.723 299.992 191.535 299.992C190.974 299.993 190.414 299.995 189.853 299.999C178.081 300.073 167.86 296.111 159.447 287.901C158.658 287.106 157.942 286.273 157.251 285.393C157.131 285.247 157.011 285.1 156.888 284.95C156.294 284.205 155.818 283.522 155.471 282.633C155.038 281.618 154.754 281.051 153.883 280.359C152.097 280.003 150.232 280.233 148.427 280.337C143.498 280.482 138.554 277.909 135.013 274.676C130.66 270.453 128.078 264.808 128.001 258.753C127.994 256.212 128.047 253.894 128.805 251.449C128.896 251.155 128.986 250.861 129.079 250.559C129.691 248.725 130.429 247.105 131.537 245.518C131.716 245.261 131.894 245.004 132.079 244.739C135.361 240.187 139.963 237.652 145.389 236.472C151.262 235.761 156.997 236.815 161.829 240.329C162.7 241.03 163.514 241.772 164.312 242.553C164.504 242.741 164.696 242.929 164.894 243.123C167.019 245.332 168.382 247.84 169.371 250.707C169.43 250.877 169.49 251.047 169.551 251.221C170.443 253.992 170.593 256.889 170.599 259.777C170.602 260.255 170.602 260.255 170.606 260.743C170.613 261.604 170.617 262.466 170.62 263.328C170.624 264.232 170.631 265.137 170.637 266.042C170.648 267.75 170.658 269.458 170.666 271.167C170.675 273.113 170.688 275.06 170.7 277.007C170.726 281.007 170.748 285.007 170.768 289.007C170.818 288.752 170.868 288.497 170.919 288.234C170.986 287.897 171.053 287.559 171.12 287.221C171.153 287.054 171.186 286.886 171.22 286.713C172.159 281.99 174.594 277.572 177.72 273.934C177.83 273.806 177.939 273.678 178.052 273.545C179.604 271.746 181.276 270.176 183.183 268.745C183.315 268.645 183.448 268.545 183.585 268.442C189.465 264.049 195.996 261.479 203.295 260.591C203.155 260.569 203.016 260.547 202.872 260.524C192.164 258.788 182.334 254.309 175.749 245.379C175.319 244.774 174.903 244.16 174.492 243.542C174.393 243.396 174.295 243.25 174.193 243.099C168.649 234.814 166.849 223.328 168.781 213.643C170.214 206.563 173.22 199.973 178.2 194.672C178.661 194.178 179.09 193.67 179.52 193.15C183.242 188.96 188.395 186.144 193.611 184.239C194.008 184.088 194.008 184.088 194.413 183.935C206.991 179.619 222.464 182.747 232.761 190.877Z" fill="#0BA960"/>
<path d="M209.011 182.492C209.011 195.513 209.011 208.534 209.011 221.949C195.673 221.949 182.334 221.949 168.592 221.949C168.592 211.852 171.405 202.295 178.494 194.8C178.955 194.311 179.383 193.807 179.812 193.291C183.53 189.135 188.676 186.343 193.885 184.453C194.149 184.353 194.414 184.254 194.686 184.151C196.387 183.571 198.147 183.242 199.914 182.921C200.135 182.878 200.356 182.835 200.585 182.791C203.435 182.312 206.02 182.492 209.011 182.492Z" fill="#D96043"/>
<path d="M168.42 221.949C181.759 221.949 195.097 221.949 208.839 221.949C208.839 234.614 208.839 247.279 208.839 260.327C199.458 261.368 189.764 257.885 182.415 252.11C179.418 249.549 176.8 246.773 174.62 243.49C174.521 243.344 174.422 243.197 174.32 243.046C171.195 238.36 169.541 232.943 168.715 227.412C168.684 227.207 168.653 227.002 168.622 226.791C168.399 225.14 168.42 223.653 168.42 221.949Z" fill="#8D5AC4"/>
<path d="M209.012 222.414C218.114 222.414 226.313 224.65 233.299 230.614C233.847 231.094 233.847 231.094 234.574 231.556C234.574 231.719 234.574 231.883 234.574 232.051C234.717 232.11 234.859 232.17 235.006 232.232C237.261 233.49 238.847 236.377 240.282 238.475C240.516 238.815 240.516 238.815 240.755 239.161C246.383 247.629 248.786 257.842 246.983 267.879C245.28 276.106 241.276 283.21 235.319 289.129C235.097 289.351 234.876 289.574 234.649 289.804C227.954 296.214 218.245 300 209.012 300C209.012 274.397 209.012 248.793 209.012 222.414Z" fill="#05728C"/>
<path d="M209.012 222.414C218.113 222.414 226.311 224.652 233.296 230.622C233.844 231.102 233.844 231.102 234.571 231.565C234.571 231.728 234.571 231.891 234.571 232.06C234.714 232.12 234.856 232.179 235.003 232.241C237.261 233.502 238.839 236.39 240.279 238.49C240.461 238.751 240.643 239.012 240.83 239.281C240.991 239.52 241.152 239.759 241.318 240.005C241.459 240.215 241.601 240.424 241.747 240.641C242.016 241.211 242.016 241.211 241.983 241.701C238.961 248.7 231.863 253.949 225.141 257.039C224.898 257.153 224.655 257.267 224.404 257.384C221.34 258.737 218.054 259.683 214.75 260.223C214.574 260.253 214.397 260.283 214.216 260.313C212.448 260.572 210.85 260.502 209.012 260.502C209.012 247.933 209.012 235.364 209.012 222.414Z" fill="#080033"/>
<path d="M161.982 240.434C162.853 241.137 163.666 241.882 164.464 242.666C164.656 242.855 164.848 243.044 165.046 243.238C168.295 246.63 170.454 251.483 170.45 256.214C170.451 256.703 170.451 256.703 170.451 257.201C170.451 257.559 170.45 257.916 170.449 258.274C170.449 258.653 170.449 259.032 170.449 259.412C170.449 260.438 170.447 261.465 170.446 262.491C170.444 263.565 170.444 264.639 170.444 265.713C170.443 267.745 170.441 269.777 170.438 271.81C170.436 274.124 170.434 276.438 170.433 278.752C170.43 283.512 170.426 288.271 170.421 293.03C170.339 293.03 170.257 293.03 170.172 293.03C170.172 281.896 170.172 270.761 170.172 259.289C163.375 259.289 156.577 259.289 149.573 259.289C149.842 266.01 150.331 271.518 152.8 277.648C152.904 277.912 153.008 278.176 153.116 278.448C153.338 279.01 153.564 279.57 153.792 280.129C153.019 280.902 150.837 280.665 149.821 280.688C143.963 280.635 138.713 278.363 134.525 274.283C129.759 269.278 128.105 263.281 128.176 256.553C128.22 254.82 128.46 253.261 128.974 251.598C129.064 251.303 129.154 251.008 129.247 250.704C129.859 248.863 130.597 247.237 131.704 245.644C131.972 245.257 131.972 245.257 132.246 244.862C135.527 240.291 140.127 237.745 145.55 236.561C151.42 235.847 157.153 236.905 161.982 240.434Z" fill="#080033"/>
<path d="M149.566 259.116C156.446 259.116 163.326 259.116 170.414 259.116C170.429 261.516 170.444 263.916 170.46 266.389C170.47 267.913 170.48 269.436 170.491 270.96C170.507 273.376 170.524 275.792 170.539 278.209C170.549 279.969 170.561 281.729 170.574 283.489C170.58 284.42 170.587 285.351 170.592 286.282C170.597 287.161 170.603 288.039 170.61 288.918C170.613 289.389 170.615 289.861 170.618 290.332C170.633 292.172 170.733 293.988 170.916 295.819C164.148 293.827 158.053 287.006 154.58 281.238C154.137 280.453 154.137 280.453 153.585 279.947C153.173 279.083 152.836 278.187 152.486 277.297C152.384 277.039 152.283 276.781 152.178 276.516C151.413 274.542 150.786 272.588 150.32 270.524C150.267 270.299 150.213 270.074 150.159 269.843C149.372 266.286 149.566 262.757 149.566 259.116Z" fill="#05728C"/>
</g>
<defs>
<clipPath id="clip0_19192_4808">
<rect width="260" height="390" fill="white"/>
</clipPath>
</defs>
</svg>
