<svg width="320" height="226" viewBox="0 0 320 226" fill="none" xmlns="http://www.w3.org/2000/svg">
<g clip-path="url(#clip0_19244_45768)">
<path d="M0 0C105.6 0 211.2 0 320 0C320 74.415 320 148.83 320 225.5C214.4 225.5 108.8 225.5 0 225.5C0 151.085 0 76.67 0 0Z" fill="#E2EFFF"/>
<path d="M115.5 191L116.609 222.823L139.895 201.105L118.178 224.391L150 225.5L118.178 226.609L139.895 249.895L116.609 228.178L115.5 260L114.391 228.178L91.1048 249.895L112.823 226.609L81 225.5L112.823 224.391L91.1048 201.105L114.391 222.823L115.5 191Z" fill="#16A9C4"/>
<path fill-rule="evenodd" clip-rule="evenodd" d="M188 183.5L188 172L174.169 172C166.53 172 160 182.297 160 195C160 207.702 166.53 218 174.169 218L188 218L188 206.5C188 200.149 183.048 195 179.229 195C183.048 195 188 189.851 188 183.5Z" fill="#D96043"/>
<circle cx="272.745" cy="122.485" r="22.4851" fill="#D93529"/>
<path fill-rule="evenodd" clip-rule="evenodd" d="M287.526 184.726C298.26 184.726 306.961 176.118 306.961 165.5C306.961 154.881 298.26 146.274 287.526 146.274L269.16 146.274L269.16 184.726L287.526 184.726Z" fill="#16A9C4"/>
<path fill-rule="evenodd" clip-rule="evenodd" d="M269.16 146.274C258.722 146.274 250.26 154.882 250.26 165.5C250.26 176.119 258.722 184.727 269.16 184.727L269.16 146.274Z" fill="#D96043"/>
<path d="M269.87 205.918C266.339 210.468 259.788 211.294 255.238 207.763C250.688 204.232 249.862 197.682 253.393 193.132C256.924 188.582 272.663 184.921 272.705 185.256C272.705 185.256 273.4 201.369 269.87 205.918Z" fill="#0BA960"/>
<rect x="12" y="189" width="12.5" height="12.5" fill="#16A9C4"/>
<rect x="24.5" y="189" width="12.5" height="12.5" fill="#D93529"/>
<rect x="12" y="201.5" width="12.5" height="12.5" fill="#8D5AC4"/>
<rect x="24.5" y="201.5" width="12.5" height="12.5" fill="#0BA960"/>
<g clip-path="url(#clip1_19244_45768)">
<mask id="mask0_19244_45768" style="mask-type:luminance" maskUnits="userSpaceOnUse" x="281" y="8" width="23" height="27">
<path d="M304 8H281V35H304V8Z" fill="white"/>
</mask>
<g mask="url(#mask0_19244_45768)">
<path fill-rule="evenodd" clip-rule="evenodd" d="M286.75 8H281V21.5C281 28.9558 286.149 35 292.5 35C298.851 35 304 28.9558 304 21.5V8H298.25C295.074 8 292.5 11.0221 292.5 14.75C292.5 11.0221 289.926 8 286.75 8Z" fill="#0BA960"/>
</g>
</g>
</g>
<defs>
<clipPath id="clip0_19244_45768">
<rect width="320" height="225.5" fill="white"/>
</clipPath>
<clipPath id="clip1_19244_45768">
<rect width="23" height="27" fill="white" transform="translate(281 8)"/>
</clipPath>
</defs>
</svg>
