<svg width="320" height="226" viewBox="0 0 320 226" fill="none" xmlns="http://www.w3.org/2000/svg">
<g clip-path="url(#clip0_19041_13609)">
<rect width="320" height="225.5" fill="#EECB8F"/>
<path d="M236.806 172.167C245.394 172.167 253.983 172.167 262.832 172.167C262.905 175.76 262.978 179.353 263.054 183.055C264.607 190.191 266.732 195.544 271.729 200.833C271.882 201 272.034 201.166 272.191 201.337C277.017 206.427 283.757 208.688 290.415 210.166C290.415 204.96 290.415 199.753 290.415 194.389C300.178 194.389 309.941 194.389 320 194.389C320 204.655 320 214.922 320 225.5C292.546 225.5 265.092 225.5 236.806 225.5C236.806 207.9 236.806 190.3 236.806 172.167Z" fill="#52829B"/>
<path d="M274.443 112.026H236.821V137.312V137.537V157.856H274.443V112.026Z" fill="#7372A9"/>
<path d="M236.806 172.167C245.394 172.167 253.983 172.167 262.832 172.167C262.832 189.766 262.832 207.366 262.832 225.5C254.243 225.5 245.655 225.5 236.806 225.5C236.806 207.9 236.806 190.3 236.806 172.167Z" fill="#5777AA"/>
<path d="M262.831 172.167C271.934 172.167 281.036 172.167 290.414 172.167C290.414 184.706 290.414 197.246 290.414 210.166C287.906 209.916 287.906 209.916 287.076 209.686C286.798 209.608 286.798 209.608 286.514 209.53C286.324 209.474 286.134 209.418 285.938 209.361C285.735 209.302 285.532 209.243 285.323 209.182C277.353 206.786 270.577 201.549 266.53 194.251C262.74 187.173 262.831 180.448 262.831 172.167Z" fill="#E17C24"/>
<path d="M296.058 112.71V79.6019C284.428 79.5943 285.115 79.4535 273.485 79.6018V112.439C274.96 112.436 276.312 112.436 277.757 112.439L278.283 112.436C278.89 112.436 279.498 112.436 280.106 112.435C280.504 112.433 280.902 112.433 281.3 112.432C281.87 112.432 281.878 112.432 283.059 112.431L283.107 112.431L286.125 112.425C289.391 112.42 292.888 112.714 296.058 112.71Z" fill="#7372A8"/>
<path d="M262.831 183.056C262.904 183.056 262.978 183.056 263.053 183.056C263.08 183.192 263.107 183.328 263.134 183.468C264.481 190.235 266.94 195.764 271.729 200.833C271.881 201 272.033 201.166 272.19 201.338C277.017 206.427 283.756 208.689 290.414 210.167C290.414 215.227 290.414 220.287 290.414 225.5C281.312 225.5 272.209 225.5 262.831 225.5C262.831 211.493 262.831 197.487 262.831 183.056Z" fill="#18465E"/>
<path d="M236.805 79.5C248.917 79.5 261.029 79.5 273.508 79.5C273.508 90.3533 273.508 101.207 273.508 112.389C261.396 112.389 249.284 112.389 236.805 112.389C236.805 101.536 236.805 90.6822 236.805 79.5Z" fill="#17465E"/>
<path d="M295.975 112.389C303.903 112.389 311.831 112.389 319.999 112.389C319.999 127.422 319.999 142.456 319.999 157.945C312.071 157.945 304.143 157.945 295.975 157.945C295.975 142.911 295.975 127.878 295.975 112.389Z" fill="#7C9E75"/>
<path d="M273.73 112.389C281.071 112.389 288.412 112.389 295.975 112.389C295.975 127.422 295.975 142.456 295.975 157.945C288.634 157.945 281.294 157.945 273.73 157.945C273.73 142.911 273.73 127.878 273.73 112.389Z" fill="#18465E"/>
<path d="M295.975 79.5C303.903 79.5 311.831 79.5 319.999 79.5C319.999 90.3533 319.999 101.207 319.999 112.389C312.071 112.389 304.143 112.389 295.975 112.389C295.975 101.536 295.975 90.6822 295.975 79.5Z" fill="#17465E"/>
<path d="M267.058 195.278C267.72 195.906 268.247 196.557 268.768 197.306C269.673 198.566 270.661 199.708 271.729 200.833C271.894 201.008 272.06 201.182 272.23 201.362C273.322 202.482 274.473 203.463 275.733 204.389C274.906 204.389 274.724 204.179 274.092 203.667C273.829 203.454 273.829 203.454 273.56 203.237C273.396 203.104 273.232 202.971 273.064 202.833C272.839 202.664 272.614 202.494 272.382 202.319C272.24 202.196 272.098 202.072 271.951 201.944C271.951 201.798 271.951 201.651 271.951 201.5C271.818 201.441 271.684 201.382 271.547 201.321C271.043 201.046 270.781 200.797 270.419 200.357C270.306 200.219 270.192 200.08 270.074 199.938C269.514 199.232 268.968 198.517 268.434 197.792C268.325 197.647 268.216 197.503 268.104 197.354C268.001 197.213 267.897 197.073 267.79 196.928C267.697 196.803 267.604 196.678 267.509 196.549C267.258 196.13 267.153 195.755 267.058 195.278Z" fill="#144069"/>
<path d="M280.628 207.5C281.419 207.635 282.114 207.851 282.852 208.166C282.779 208.386 282.706 208.606 282.63 208.833C282.199 208.75 282.199 208.75 281.74 208.611C281.667 208.464 281.593 208.318 281.518 208.166C281.069 207.915 281.069 207.915 280.628 207.722C280.628 207.649 280.628 207.575 280.628 207.5Z" fill="#114268"/>
<rect width="33.8244" height="34.2017" transform="translate(203.028 138.02)" fill="#4F7353"/>
<path d="M219.941 140.727C220.801 140.727 221.497 141.423 221.497 142.283V146.103L222.779 142.504C223.067 141.695 223.957 141.272 224.766 141.56C225.576 141.849 225.999 142.739 225.71 143.548L224.367 147.321L226.919 144.235C227.467 143.573 228.448 143.48 229.11 144.027C229.772 144.575 229.865 145.556 229.318 146.218L226.824 149.234L230.191 147.24C230.93 146.802 231.885 147.047 232.322 147.786C232.76 148.526 232.516 149.48 231.776 149.918L228.272 151.993L232.279 151.25C233.124 151.094 233.936 151.652 234.092 152.497C234.249 153.342 233.691 154.154 232.846 154.31L228.752 155.069L232.855 155.781C233.702 155.928 234.269 156.733 234.122 157.58C233.975 158.426 233.17 158.994 232.323 158.847L228.263 158.143L231.828 160.207C232.571 160.638 232.825 161.59 232.394 162.334C231.964 163.077 231.012 163.331 230.268 162.9L226.591 160.771L229.287 164.055C229.832 164.72 229.736 165.7 229.072 166.246C228.408 166.791 227.427 166.694 226.882 166.03L224.387 162.991L225.704 166.696C225.991 167.506 225.568 168.395 224.759 168.683C223.949 168.971 223.059 168.548 222.771 167.738L221.497 164.154V167.958C221.497 168.817 220.801 169.514 219.941 169.514C219.082 169.514 218.385 168.817 218.385 167.958V164.123L217.099 167.736C216.811 168.546 215.921 168.968 215.111 168.68C214.302 168.392 213.879 167.502 214.167 166.692L215.512 162.915L212.957 166.005C212.409 166.668 211.429 166.761 210.766 166.213C210.104 165.665 210.011 164.684 210.558 164.022L213.052 161.006L209.684 163C208.945 163.438 207.99 163.194 207.553 162.454C207.115 161.715 207.359 160.76 208.099 160.323L211.6 158.249L207.601 158.99C206.756 159.147 205.944 158.589 205.788 157.744C205.631 156.899 206.189 156.087 207.034 155.93L211.128 155.171L207.026 154.46C206.179 154.313 205.612 153.508 205.758 152.661C205.905 151.814 206.711 151.247 207.558 151.393L211.612 152.097L208.05 150.034C207.306 149.603 207.052 148.651 207.483 147.907C207.914 147.164 208.866 146.91 209.61 147.341L213.288 149.471L210.591 146.185C210.046 145.521 210.142 144.541 210.806 143.995C211.471 143.45 212.451 143.546 212.996 144.211L215.489 147.247L214.173 143.545C213.886 142.736 214.309 141.846 215.119 141.558C215.928 141.27 216.818 141.693 217.106 142.503L218.385 146.103V142.283C218.385 141.423 219.082 140.727 219.941 140.727Z" fill="#CBA21C"/>
<path d="M76 212.841C56.2 212.841 36.4 212.841 16 212.841C16 201.178 16 189.516 16 177.5C35.8 177.5 55.6 177.5 76 177.5C76 189.162 76 200.825 76 212.841Z" fill="#0BA960"/>
<path d="M16 212.841L76 212.841L16 177.5L16 212.841Z" fill="#D96043"/>
<path d="M130.097 166.532C130.694 166.522 131.29 166.515 131.887 166.51C132.054 166.506 132.222 166.503 132.394 166.5C133.893 166.49 135.075 166.8 136.422 167.468C136.756 167.63 136.756 167.63 137.097 167.796C142.194 170.513 145.138 175.363 146.956 180.685C147.355 182.031 147.642 183.394 147.9 184.774C147.98 184.488 148.06 184.202 148.142 183.907C149.907 177.721 152.2 171.885 157.973 168.403C160.06 167.248 161.857 166.46 164.283 166.503C164.444 166.505 164.604 166.507 164.769 166.51C165.159 166.515 165.548 166.523 165.938 166.532C165.962 169.255 165.973 171.977 165.968 174.699C165.966 175.964 165.968 177.228 165.98 178.492C165.992 179.715 165.992 180.937 165.985 182.159C165.984 182.623 165.987 183.088 165.995 183.552C166.036 186.328 165.879 188.138 163.965 190.238C163.666 190.544 163.666 190.544 163.361 190.855C163.011 191.281 162.664 191.709 162.322 192.141C161.658 192.946 160.985 193.742 160.307 194.534C159.052 196.003 157.853 197.506 156.686 199.046C156.28 199.578 155.87 200.107 155.46 200.635C153.505 203.165 151.645 205.737 149.862 208.39C149.377 209.103 148.874 209.801 148.369 210.5C147.398 210.147 146.962 209.466 146.407 208.644C146.199 208.345 145.991 208.047 145.783 207.749C145.671 207.589 145.56 207.429 145.445 207.264C142.608 203.23 139.573 199.325 136.422 195.532C136.029 195.058 135.637 194.584 135.245 194.11C134.98 193.789 134.714 193.468 134.448 193.147C134.177 192.82 133.91 192.488 133.647 192.154C133.252 191.687 132.859 191.276 132.421 190.853C130.287 188.675 129.982 186.787 130.001 183.794C130.013 183.263 130.026 182.733 130.038 182.202C130.041 181.653 130.043 181.105 130.043 180.557C130.046 179.453 130.057 178.349 130.075 177.245C130.098 175.768 130.1 174.291 130.092 172.813C130.083 170.719 130.085 168.626 130.097 166.532Z" fill="#7C9E75"/>
<path d="M294.05 10.3243C295.743 11.6522 296.661 13.483 297.005 15.613C297.364 19.0393 296.236 22.5228 294.988 25.6694C294.708 26.424 294.545 27.1777 294.436 27.975C295.425 27.3699 296.359 26.7438 297.24 25.9836C299.492 24.0774 301.9 22.6703 304.862 22.6428C305.085 22.6399 305.085 22.6399 305.312 22.637C306.386 22.6613 307.195 22.9374 308.138 23.4481C308.283 23.5257 308.428 23.6034 308.577 23.6834C310.321 24.8141 311.427 26.4525 311.906 28.4973C312.152 30.342 311.948 32.0966 310.912 33.6656C309.397 35.6792 307.71 36.8082 305.226 37.203C302.527 37.44 299.837 36.9244 297.176 36.5065C297.579 37.0447 297.95 37.4877 298.499 37.8702C298.678 37.9967 298.678 37.9967 298.861 38.1257C298.987 38.2126 299.113 38.2996 299.242 38.3891C299.505 38.5745 299.767 38.76 300.03 38.9455C300.277 39.1192 300.525 39.2929 300.773 39.4665C303.051 41.0663 304.992 42.8093 305.676 45.6583C305.917 47.9072 305.604 49.708 304.241 51.5564C303.006 53.0054 301.562 53.793 299.684 53.9729C297.627 54.0437 296.05 53.4547 294.436 52.1767C294.281 52.0578 294.281 52.0578 294.122 51.9366C291.964 50.0398 291.323 46.6213 290.818 43.9281C290.75 43.5714 290.682 43.2147 290.613 42.8581C290.552 42.5374 290.491 42.2165 290.431 41.8956C290.334 41.3749 290.334 41.3749 290.154 40.8594C290.115 41.0126 290.115 41.0126 290.076 41.1689C289.764 42.402 289.447 43.6333 289.126 44.864C289.082 45.0339 289.039 45.2038 288.993 45.3788C288.242 48.2663 287.438 51.0701 284.877 52.8514C283.19 53.7997 281.455 54.1833 279.535 53.9178C277.594 53.3143 276.144 51.8895 275.157 50.12C274.332 48.5127 274.318 46.5634 274.825 44.8422C275.747 42.366 277.471 40.6143 279.61 39.1944C281.522 38.0814 281.522 38.0814 282.96 36.5065C282.867 36.5215 282.773 36.5364 282.676 36.5517C278.994 37.1333 278.994 37.1333 277.651 37.203C277.457 37.2162 277.263 37.2295 277.063 37.2431C274.388 37.3477 271.899 36.5014 269.901 34.6566C268.318 32.9695 267.961 31.05 268.003 28.8245C268.088 26.9815 268.916 25.6953 270.156 24.3914C272.109 22.6508 274.205 22.4112 276.695 22.536C279.864 22.8336 282.447 25.3958 284.657 27.4962C285.011 27.8347 285.011 27.8347 285.53 27.975C285.276 26.2231 284.751 24.5885 284.207 22.9108C283.546 20.8177 283.242 18.8212 283.239 16.625C283.235 16.4505 283.23 16.276 283.226 16.0962C283.218 14.04 283.983 12.5354 285.358 11.0691C287.907 8.59362 291.142 8.33191 294.05 10.3243Z" fill="#6E956E"/>
</g>
<defs>
<clipPath id="clip0_19041_13609">
<rect width="320" height="225.5" fill="white"/>
</clipPath>
</defs>
</svg>
