<svg width="60" height="30" viewBox="0 0 60 30" fill="none" xmlns="http://www.w3.org/2000/svg">
<rect width="60" height="30.0044" fill="#080033"/>
<circle cx="8.35979" cy="8.67912" r="5.9633" fill="#D96043"/>
<mask id="mask0_19020_33870" style="mask-type:luminance" maskUnits="userSpaceOnUse" x="16" y="2" width="13" height="13">
<path d="M28.7499 2.71582H16.8232V14.6424H28.7499V2.71582Z" fill="white"/>
</mask>
<g mask="url(#mask0_19020_33870)">
<path fill-rule="evenodd" clip-rule="evenodd" d="M16.8234 14.6424C16.8233 14.6325 16.8232 14.6226 16.8232 14.6126C16.8232 13.0986 17.9406 11.8455 19.3956 11.6329C17.9426 11.4335 16.8232 10.187 16.8232 8.67913C16.8232 7.03241 18.1582 5.69747 19.8049 5.69747H19.8347C18.1815 5.69747 16.8394 4.36528 16.8234 2.71582H28.7497C28.7337 4.36528 27.3917 5.69747 25.7384 5.69747H25.7682C27.4149 5.69747 28.7499 7.03241 28.7499 8.67913C28.7499 10.187 27.6305 11.4335 26.1775 11.6329C27.6325 11.8455 28.7499 13.0986 28.7499 14.6126C28.7499 14.6226 28.7498 14.6325 28.7497 14.6424H16.8234Z" fill="#406C01"/>
</g>
<rect x="31.25" y="2.71582" width="11.9266" height="11.9266" fill="#F9B0A6"/>
<path d="M51.6412 10.9866C46.5453 17.908 42.4138 13.7766 49.3339 8.67892C42.4107 3.58207 46.5421 -0.54777 51.6412 6.37206C56.7371 -0.550149 60.8685 3.58207 53.9484 8.67892C60.8654 13.7766 56.7339 17.908 51.6412 10.9866Z" fill="#05728C"/>
<path fill-rule="evenodd" clip-rule="evenodd" d="M7.96187 22.0409C4.66909 22.0402 2 19.3706 2 16.0776L13.9266 16.0776C13.9266 19.3706 11.2576 22.0402 7.96474 22.0409C11.2576 22.0417 13.9266 24.7113 13.9266 28.0042H2C2 24.7113 4.66909 22.0417 7.96187 22.0409Z" fill="#16A9C4"/>
<path d="M25.9778 24.0706C25.6518 24.3966 25.1232 24.3966 24.7971 24.0706L23.3578 22.6311C23.0317 22.3051 23.0317 21.7765 23.3578 21.4505L24.7971 20.0111C25.1232 19.6851 25.6518 19.6851 25.9778 20.0111L27.4172 21.4505C27.7433 21.7765 27.7433 22.3051 27.4172 22.6311L25.9778 24.0706ZM19.2913 24.0706C18.9653 24.3966 18.4367 24.3966 18.1107 24.0706L16.6713 22.6311C16.3452 22.3051 16.3452 21.7765 16.6713 21.4505L18.1107 20.0111C18.4367 19.6851 18.9653 19.6851 19.2913 20.0111L20.7307 21.4505C21.0568 21.7765 21.0568 22.3051 20.7307 22.6311L19.2913 24.0706ZM22.6346 27.4138C22.3085 27.7398 21.78 27.7398 21.4539 27.4138L20.0145 25.9744C19.6885 25.6484 19.6885 25.1198 20.0145 24.7937L21.4539 23.3544C21.78 23.0283 22.3085 23.0283 22.6346 23.3544L24.074 24.7937C24.4 25.1198 24.4 25.6484 24.074 25.9744L22.6346 27.4138ZM22.6346 20.7273C22.3085 21.0533 21.78 21.0533 21.4539 20.7273L20.0145 19.2879C19.6885 18.9619 19.6885 18.4333 20.0145 18.1072L21.4539 16.6679C21.78 16.3418 22.3085 16.3418 22.6346 16.6679L24.074 18.1072C24.4 18.4333 24.4 18.9619 24.074 19.2879L22.6346 20.7273Z" fill="#FDA8B7"/>
<path fill-rule="evenodd" clip-rule="evenodd" d="M38.0408 25.8895C37.4621 26.854 36.7623 27.2887 36.1244 27.2887C35.4865 27.2887 34.7867 26.854 34.208 25.8895C33.6379 24.9392 33.2621 23.5802 33.2621 22.0409C33.2621 20.5016 33.6379 19.1427 34.208 18.1924C34.7867 17.2279 35.4865 16.7932 36.1244 16.7932C36.7623 16.7932 37.4621 17.2279 38.0408 18.1924C38.611 19.1427 38.9868 20.5016 38.9868 22.0409C38.9868 23.5802 38.611 24.9392 38.0408 25.8895ZM42.0877 22.0409C42.0877 18.7475 39.4179 16.0776 36.1244 16.0776C32.831 16.0776 30.1611 18.7475 30.1611 22.0409C30.1611 25.3344 32.831 28.0042 36.1244 28.0042C39.4179 28.0042 42.0877 25.3344 42.0877 22.0409ZM30.8767 22.0409C30.8767 24.1836 32.1608 26.0262 34.0013 26.8414C33.1188 25.7554 32.5465 24.0096 32.5465 22.0409C32.5465 20.0723 33.1188 18.3264 34.0013 17.2405C32.1608 18.0557 30.8767 19.8984 30.8767 22.0409ZM41.3721 22.0409C41.3721 24.1836 40.0881 26.0262 38.2476 26.8414C39.1301 25.7554 39.7024 24.0096 39.7024 22.0409C39.7024 20.0723 39.1301 18.3264 38.2476 17.2405C40.0881 18.0557 41.3721 19.8984 41.3721 22.0409ZM36.1244 22.6969C36.4867 22.6969 36.7804 22.4032 36.7804 22.0409C36.7804 21.6787 36.4867 21.385 36.1244 21.385C35.7622 21.385 35.4685 21.6787 35.4685 22.0409C35.4685 22.4032 35.7622 22.6969 36.1244 22.6969Z" fill="#C9CDFE"/>
<path fill-rule="evenodd" clip-rule="evenodd" d="M56.5145 19.0593V16.0776L50.5512 16.0776V19.0581C50.5506 17.4119 49.2159 16.0776 47.5695 16.0776H44.5879V22.0409H47.5695C45.9228 22.0409 44.5879 23.3759 44.5879 25.0226L44.5879 28.0042H50.5512V25.0226C50.5512 26.6693 51.8861 28.0042 53.5328 28.0042H56.5145V22.0409H53.534C55.1802 22.0403 56.5145 20.7056 56.5145 19.0593Z" fill="#0BA960"/>
</svg>
