<svg width="260" height="390" viewBox="0 0 260 390" fill="none" xmlns="http://www.w3.org/2000/svg">
<g opacity="0.99" clip-path="url(#clip0_19192_4888)">
<path d="M0 0C85.8 0 171.6 0 260 0C260 128.7 260 257.4 260 390C174.2 390 88.4 390 0 390C0 261.3 0 132.6 0 0Z" fill="#EECB8F"/>
<path d="M158.311 290.745C168.808 290.745 179.306 290.745 190.122 290.745C190.212 295.142 190.302 299.538 190.394 304.068C192.292 312.798 194.89 319.348 200.998 325.82C201.184 326.023 201.37 326.227 201.562 326.437C207.462 332.664 215.7 335.431 223.838 337.239C223.838 330.869 223.838 324.498 223.838 317.935C235.771 317.935 247.705 317.935 260 317.935C260 330.496 260 343.058 260 356C226.442 356 192.885 356 158.311 356C158.311 334.466 158.311 312.932 158.311 290.745Z" fill="#52829B"/>
<path d="M158.311 273.344C191.868 273.344 225.425 273.344 260 273.344C260 288.059 260 302.774 260 317.935C248.066 317.935 236.133 317.935 223.838 317.935C223.838 324.305 223.838 330.676 223.838 337.239C220.771 336.933 220.771 336.933 219.757 336.651C219.417 336.557 219.417 336.557 219.07 336.46C218.838 336.392 218.605 336.324 218.366 336.254C218.118 336.181 217.87 336.109 217.614 336.035C207.872 333.103 199.59 326.696 194.644 317.766C190.011 309.106 190.122 300.878 190.122 290.745C179.624 290.745 169.127 290.745 158.311 290.745C158.311 285.003 158.311 279.26 158.311 273.344Z" fill="#EECB8F"/>
<path d="M222.618 10.9312C225.127 12.8676 226.488 15.5374 226.998 18.6436C227.531 23.6401 225.858 28.7201 224.008 33.3087C223.593 34.4091 223.352 35.5083 223.19 36.671C224.657 35.7886 226.041 34.8755 227.347 33.7669C230.685 30.9872 234.254 28.9353 238.646 28.8951C238.977 28.8909 238.977 28.8909 239.314 28.8867C240.905 28.922 242.104 29.3247 243.502 30.0694C243.717 30.1827 243.932 30.2959 244.154 30.4126C246.738 32.0614 248.379 34.4507 249.088 37.4327C249.453 40.1227 249.151 42.6815 247.615 44.9696C245.368 47.9058 242.867 49.5524 239.186 50.128C235.184 50.4736 231.197 49.7218 227.252 49.1124C227.849 49.8972 228.399 50.5432 229.213 51.101C229.479 51.2854 229.479 51.2854 229.75 51.4736C229.937 51.6004 230.123 51.7271 230.315 51.8577C230.704 52.1281 231.093 52.3985 231.482 52.6691C231.85 52.9225 232.217 53.1757 232.584 53.4288C235.962 55.7618 238.839 58.3036 239.852 62.4583C240.21 65.7379 239.747 68.3639 237.726 71.0594C235.894 73.1724 233.755 74.321 230.97 74.5834C227.92 74.6865 225.582 73.8276 223.19 71.964C222.959 71.7906 222.959 71.7906 222.725 71.6138C219.525 68.8477 218.576 63.8626 217.826 59.9351C217.725 59.4149 217.625 58.8948 217.523 58.3747C217.432 57.907 217.342 57.4391 217.253 56.9712C217.109 56.2118 217.109 56.2118 216.842 55.46C216.785 55.6835 216.785 55.6835 216.726 55.9115C216.265 57.7096 215.794 59.5052 215.319 61.2999C215.254 61.5477 215.189 61.7954 215.122 62.0507C214.008 66.2615 212.816 70.3502 209.019 72.9478C206.518 74.3308 203.946 74.8902 201.1 74.503C198.222 73.6229 196.074 71.5452 194.609 68.9647C193.387 66.6208 193.367 63.7781 194.117 61.2682C195.485 57.6571 198.04 55.1027 201.211 53.0321C204.046 51.409 204.046 51.409 206.178 49.1124C206.039 49.1341 205.9 49.1559 205.756 49.1783C200.298 50.0264 200.298 50.0264 198.307 50.128C198.02 50.1473 197.732 50.1666 197.436 50.1865C193.469 50.3391 189.781 49.1049 186.818 46.4146C184.472 43.9543 183.942 41.1553 184.005 37.9098C184.131 35.2222 185.358 33.3465 187.197 31.4451C190.092 28.9067 193.198 28.5573 196.89 28.7394C201.588 29.1734 205.418 32.9098 208.693 35.9727C209.218 36.4664 209.218 36.4664 209.987 36.671C209.611 34.1162 208.832 31.7324 208.026 29.2859C207.046 26.2337 206.595 23.3221 206.591 20.1195C206.584 19.865 206.578 19.6105 206.572 19.3483C206.56 16.3497 207.694 14.1556 209.733 12.0173C213.511 8.40739 218.307 8.02573 222.618 10.9312Z" fill="#6E956E"/>
<path d="M204.316 217.16H158.33V248.098V248.374V273.235H204.316V217.16Z" fill="#7372A9"/>
<path d="M158.311 290.745C168.808 290.745 179.306 290.745 190.122 290.745C190.122 312.279 190.122 333.813 190.122 356C179.624 356 169.127 356 158.311 356C158.311 334.466 158.311 312.932 158.311 290.745Z" fill="#5777AA"/>
<path d="M13.3623 201.03C13.9092 201.021 14.456 201.014 15.003 201.009C15.1565 201.006 15.31 201.003 15.4682 201C16.842 200.99 17.9256 201.279 19.1601 201.902C19.4665 202.053 19.4665 202.053 19.7791 202.207C24.4516 204.739 27.1499 209.259 28.8164 214.218C29.1822 215.472 29.4452 216.742 29.682 218.028C29.7551 217.762 29.8282 217.495 29.9035 217.22C31.5211 211.456 33.6237 206.018 38.9155 202.774C40.8283 201.697 42.4756 200.963 44.6999 201.003C44.8468 201.005 44.9936 201.007 45.1449 201.009C45.5021 201.014 45.8593 201.022 46.2165 201.03C46.2382 203.567 46.2483 206.103 46.2437 208.64C46.242 209.819 46.2441 210.997 46.2555 212.175C46.2663 213.314 46.2665 214.452 46.2596 215.591C46.2588 216.024 46.2617 216.457 46.2685 216.889C46.3065 219.476 46.1628 221.163 44.4082 223.12C44.1341 223.404 44.1341 223.404 43.8544 223.694C43.5332 224.091 43.215 224.49 42.9015 224.893C42.2933 225.643 41.6767 226.384 41.0551 227.123C39.9046 228.491 38.805 229.892 37.7356 231.327C37.3637 231.822 36.988 232.315 36.6122 232.808C34.82 235.165 33.1143 237.562 31.4801 240.034C31.0354 240.698 30.5743 241.349 30.1115 242C29.2216 241.671 28.8221 241.036 28.3131 240.27C28.1227 239.992 27.932 239.714 27.741 239.437C27.6388 239.288 27.5366 239.138 27.4313 238.984C24.8306 235.226 22.0489 231.587 19.1601 228.053C18.8003 227.611 18.4407 227.169 18.0814 226.727C17.8381 226.428 17.5946 226.129 17.3508 225.831C17.1023 225.525 16.8577 225.216 16.6161 224.905C16.2547 224.47 15.8938 224.087 15.4928 223.692C13.5365 221.663 13.2566 219.903 13.2742 217.115C13.2854 216.62 13.2969 216.126 13.3086 215.631C13.3114 215.12 13.3129 214.609 13.3133 214.098C13.316 213.07 13.3257 212.041 13.3419 211.013C13.363 209.636 13.3648 208.26 13.3581 206.883C13.3494 204.932 13.3512 202.981 13.3623 201.03Z" fill="#7C9E75"/>
<path d="M190.123 290.745C201.249 290.745 212.375 290.745 223.838 290.745C223.838 306.088 223.838 321.431 223.838 337.239C220.772 336.933 220.772 336.933 219.758 336.651C219.418 336.557 219.418 336.557 219.071 336.46C218.839 336.392 218.606 336.324 218.366 336.254C218.119 336.181 217.871 336.109 217.615 336.035C207.873 333.103 199.591 326.696 194.644 317.766C190.012 309.106 190.123 300.878 190.123 290.745Z" fill="#E17C24"/>
<path d="M230.736 217.998V177.489C216.52 177.48 217.36 177.308 203.145 177.489V217.666C204.947 217.663 206.6 217.663 208.366 217.666L209.008 217.663C209.751 217.663 210.494 217.663 211.237 217.661C211.723 217.66 212.21 217.659 212.697 217.658C213.395 217.658 213.403 217.658 214.857 217.657L214.905 217.657L218.594 217.649C222.586 217.644 226.861 218.003 230.736 217.998Z" fill="#7372A8"/>
<path d="M190.123 304.067C190.213 304.067 190.302 304.067 190.395 304.067C190.428 304.234 190.46 304.401 190.494 304.572C192.139 312.851 195.145 319.617 200.999 325.819C201.185 326.023 201.371 326.226 201.563 326.436C207.462 332.663 215.7 335.43 223.838 337.239C223.838 343.43 223.838 349.621 223.838 356C212.712 356 201.586 356 190.123 356C190.123 338.862 190.123 321.724 190.123 304.067Z" fill="#18465E"/>
<path d="M158.311 177.364C173.116 177.364 187.921 177.364 203.174 177.364C203.174 190.644 203.174 203.923 203.174 217.605C188.369 217.605 173.564 217.605 158.311 217.605C158.311 204.325 158.311 191.046 158.311 177.364Z" fill="#17465E"/>
<path d="M230.635 217.606C240.326 217.606 250.016 217.606 260 217.606C260 236 260 254.394 260 273.345C250.31 273.345 240.619 273.345 230.635 273.345C230.635 254.951 230.635 236.557 230.635 217.606Z" fill="#7C9E75"/>
<path d="M203.446 217.606C212.418 217.606 221.391 217.606 230.635 217.606C230.635 236 230.635 254.394 230.635 273.345C221.663 273.345 212.69 273.345 203.446 273.345C203.446 254.951 203.446 236.557 203.446 217.606Z" fill="#18465E"/>
<path d="M230.635 177.364C240.326 177.364 250.016 177.364 260 177.364C260 190.644 260 203.923 260 217.605C250.31 217.605 240.619 217.605 230.635 217.605C230.635 204.325 230.635 191.046 230.635 177.364Z" fill="#17465E"/>
<path d="M195.289 319.022C196.099 319.791 196.742 320.588 197.379 321.504C198.486 323.045 199.694 324.444 200.999 325.82C201.201 326.033 201.403 326.247 201.612 326.467C202.946 327.838 204.352 329.037 205.893 330.17C204.882 330.17 204.659 329.913 203.888 329.287C203.565 329.026 203.565 329.026 203.237 328.761C203.037 328.598 202.836 328.435 202.63 328.267C202.355 328.059 202.081 327.852 201.798 327.638C201.624 327.487 201.45 327.335 201.271 327.179C201.271 327 201.271 326.82 201.271 326.636C201.108 326.563 200.944 326.491 200.776 326.417C200.161 326.08 199.841 325.775 199.398 325.237C199.259 325.068 199.12 324.898 198.976 324.724C198.292 323.86 197.625 322.986 196.971 322.098C196.838 321.921 196.705 321.745 196.568 321.562C196.442 321.391 196.315 321.219 196.184 321.042C196.071 320.888 195.957 320.735 195.84 320.578C195.534 320.065 195.406 319.606 195.289 319.022Z" fill="#144069"/>
<path d="M189.414 22.0898C189.498 22.2574 189.582 22.425 189.668 22.5977C188.991 23.2747 188.314 23.9518 187.637 24.6289C187.385 24.5451 187.134 24.4613 186.875 24.375C187.202 24.041 187.53 23.7079 187.859 23.3752C188.133 23.0969 188.133 23.0969 188.412 22.8129C188.906 22.3437 188.906 22.3437 189.414 22.0898Z" fill="#5F8F69"/>
<path d="M211.875 333.977C212.842 334.142 213.692 334.406 214.594 334.792C214.504 335.061 214.415 335.331 214.322 335.608C213.795 335.506 213.795 335.506 213.234 335.336C213.145 335.157 213.055 334.977 212.963 334.792C212.414 334.484 212.414 334.484 211.875 334.248C211.875 334.159 211.875 334.069 211.875 333.977Z" fill="#114268"/>
<path d="M147.565 338.992C147.565 339.808 147.565 339.808 146.885 340.539C146.661 340.746 146.436 340.954 146.205 341.167C146.273 340.386 146.273 340.386 146.477 339.536C147.038 339.162 147.038 339.162 147.565 338.992Z" fill="#729A72"/>
<rect width="41.3439" height="41.8469" transform="translate(117.027 248.965)" fill="#4F7353"/>
<path d="M137.756 253.18C138.754 253.18 139.563 253.989 139.563 254.986V259.421L141.05 255.243C141.385 254.304 142.418 253.813 143.357 254.148C144.297 254.482 144.788 255.515 144.453 256.455L142.894 260.835L145.856 257.252C146.492 256.483 147.631 256.375 148.399 257.011C149.168 257.647 149.276 258.786 148.64 259.554L145.746 263.055L149.654 260.741C150.512 260.232 151.62 260.516 152.128 261.375C152.637 262.233 152.353 263.341 151.495 263.849L147.427 266.258L152.078 265.396C153.059 265.214 154.001 265.862 154.183 266.843C154.365 267.823 153.717 268.766 152.736 268.948L147.984 269.829L152.747 270.655C153.73 270.825 154.388 271.76 154.218 272.743C154.047 273.726 153.112 274.385 152.129 274.214L147.416 273.397L151.554 275.793C152.418 276.293 152.712 277.398 152.212 278.262C151.712 279.125 150.607 279.42 149.744 278.92L145.475 276.448L148.605 280.26C149.238 281.031 149.126 282.17 148.355 282.803C147.584 283.436 146.446 283.324 145.813 282.553L142.917 279.025L144.445 283.326C144.779 284.266 144.288 285.298 143.348 285.632C142.408 285.967 141.375 285.475 141.041 284.535L139.563 280.375V284.79C139.563 285.788 138.754 286.597 137.756 286.597C136.759 286.597 135.95 285.788 135.95 284.79V280.339L134.457 284.533C134.122 285.473 133.089 285.963 132.149 285.629C131.21 285.294 130.719 284.261 131.054 283.321L132.615 278.936L129.649 282.524C129.013 283.293 127.874 283.401 127.106 282.765C126.337 282.129 126.229 280.991 126.864 280.222L129.76 276.72L125.85 279.036C124.991 279.544 123.883 279.26 123.375 278.402C122.867 277.543 123.151 276.435 124.009 275.927L128.074 273.52L123.432 274.381C122.451 274.562 121.508 273.915 121.326 272.934C121.144 271.953 121.792 271.01 122.773 270.828L127.525 269.947L122.764 269.122C121.781 268.951 121.122 268.016 121.292 267.033C121.463 266.05 122.398 265.392 123.381 265.562L128.087 266.378L123.952 263.984C123.089 263.484 122.795 262.379 123.294 261.515C123.794 260.652 124.9 260.357 125.763 260.857L130.033 263.33L126.902 259.516C126.269 258.745 126.381 257.607 127.152 256.974C127.923 256.341 129.061 256.453 129.694 257.224L132.588 260.748L131.061 256.452C130.727 255.512 131.218 254.479 132.158 254.145C133.098 253.811 134.131 254.302 134.465 255.242L135.95 259.421V254.986C135.95 253.989 136.759 253.18 137.756 253.18Z" fill="#CBA21C"/>
<path d="M67.4346 259.434H90.869L67.4346 282.869L44.0002 259.434H67.4346Z" fill="#8D5AC4"/>
<path d="M67.4346 306.566L44.0002 306.566L67.4346 283.131L90.869 306.566L67.4346 306.566Z" fill="#080033"/>
<path d="M62.4624 382.451C47.0029 382.451 31.5435 382.451 15.6156 382.451C15.6156 373.336 15.6156 364.221 15.6156 354.83C31.075 354.83 46.5345 354.83 62.4624 354.83C62.4624 363.945 62.4624 373.06 62.4624 382.451Z" fill="#0BA960"/>
<path d="M15.6156 382.451L62.4624 382.451L15.6156 354.83L15.6156 382.451Z" fill="#D96043"/>
<path d="M99.4879 365.937C87.3115 360.274 82.0904 345.84 87.8261 333.698C92.5025 323.799 103.018 318.479 113.342 319.921L100.371 347.38L127.922 360.193C120.91 367.913 109.419 370.555 99.4879 365.937Z" fill="#D96043"/>
</g>
<defs>
<clipPath id="clip0_19192_4888">
<rect width="260" height="390" fill="white"/>
</clipPath>
</defs>
</svg>
