<svg width="320" height="226" viewBox="0 0 320 226" fill="none" xmlns="http://www.w3.org/2000/svg">
<g clip-path="url(#clip0_19194_4624)">
<path d="M0 0C105.6 0 211.2 0 320 0C320 74.415 320 148.83 320 225.5C214.4 225.5 108.8 225.5 0 225.5C0 151.085 0 76.67 0 0Z" fill="#F4F3F1"/>
<path d="M295.435 113.715C296.228 114.359 296.989 115.033 297.744 115.719C297.954 115.907 298.163 116.095 298.379 116.289C302.838 120.499 305.836 125.779 307.893 131.484C308.049 131.918 308.049 131.918 308.209 132.361C311.368 141.863 310.294 152.624 305.913 161.536C305.575 162.138 305.234 162.73 304.861 163.311C304.616 163.895 304.734 164.139 304.923 164.739C305.085 165.1 305.257 165.457 305.436 165.811C310.279 175.532 311.212 185.686 307.817 196.044C305.76 202.007 302.2 207.116 297.744 211.541C297.524 211.764 297.303 211.986 297.076 212.215C289.072 219.876 278.526 222.455 267.762 222.462C267.188 222.464 266.615 222.466 266.041 222.467C264.842 222.47 263.644 222.471 262.446 222.471C260.927 222.471 259.409 222.478 257.891 222.486C256.706 222.492 255.522 222.493 254.337 222.492C253.778 222.493 253.219 222.495 252.66 222.499C240.925 222.573 230.736 218.623 222.349 210.439C221.562 209.646 220.849 208.816 220.159 207.939C220.04 207.793 219.921 207.647 219.797 207.496C219.206 206.754 218.731 206.073 218.385 205.187C217.954 204.175 217.67 203.61 216.802 202.92C215.021 202.565 213.162 202.795 211.363 202.898C206.449 203.042 201.52 200.477 197.99 197.254C193.651 193.045 191.077 187.418 191 181.381C190.993 178.847 191.046 176.537 191.802 174.099C191.892 173.806 191.982 173.514 192.075 173.212C192.684 171.384 193.421 169.769 194.525 168.187C194.703 167.931 194.881 167.675 195.065 167.411C198.337 162.873 202.925 160.345 208.334 159.169C214.189 158.461 219.907 159.511 224.723 163.014C225.592 163.713 226.403 164.452 227.199 165.231C227.39 165.419 227.581 165.606 227.779 165.799C229.897 168.001 231.256 170.502 232.242 173.36C232.301 173.529 232.36 173.698 232.421 173.873C233.31 176.635 233.46 179.522 233.466 182.402C233.469 182.879 233.469 182.879 233.473 183.365C233.48 184.224 233.484 185.082 233.487 185.941C233.491 186.843 233.497 187.745 233.504 188.648C233.515 190.35 233.524 192.053 233.533 193.756C233.542 195.697 233.554 197.638 233.567 199.579C233.592 203.566 233.614 207.554 233.634 211.541C233.684 211.287 233.734 211.033 233.786 210.771C233.852 210.434 233.919 210.098 233.986 209.761C234.018 209.594 234.051 209.427 234.085 209.254C235.022 204.546 237.449 200.142 240.565 196.515C240.674 196.387 240.783 196.259 240.896 196.128C242.443 194.334 244.11 192.768 246.011 191.342C246.143 191.243 246.276 191.143 246.412 191.04C252.274 186.66 258.784 184.099 266.061 183.213C265.922 183.191 265.783 183.169 265.639 183.146C254.965 181.416 245.165 176.951 238.6 168.049C238.171 167.445 237.757 166.834 237.347 166.217C237.249 166.071 237.15 165.926 237.049 165.776C231.522 157.516 229.728 146.066 231.654 136.411C233.083 129.352 236.079 122.783 241.044 117.498C241.504 117.006 241.931 116.5 242.36 115.981C246.07 111.804 251.207 108.997 256.407 107.098C256.803 106.948 256.803 106.948 257.207 106.795C269.745 102.492 285.17 105.61 295.435 113.715Z" fill="#0BA960"/>
<path d="M271.759 145.154C280.833 145.154 289.007 147.383 295.971 153.329C296.517 153.807 296.517 153.807 297.242 154.268C297.242 154.43 297.242 154.593 297.242 154.76C297.384 154.82 297.526 154.88 297.673 154.941C299.921 156.196 301.502 159.073 302.932 161.165C303.166 161.504 303.166 161.504 303.404 161.849C309.014 170.291 311.41 180.472 309.612 190.478C307.914 198.68 303.923 205.761 297.984 211.662C297.764 211.884 297.543 212.106 297.316 212.335C290.643 218.725 280.964 222.5 271.759 222.5C271.759 196.976 271.759 171.451 271.759 145.154Z" fill="#05728C"/>
<path d="M271.759 59.0078C286.584 59.0078 301.41 59.0078 316.684 59.0078C316.684 74.2918 316.684 89.5757 316.684 105.323C301.859 105.323 287.033 105.323 271.759 105.323C271.759 90.0389 271.759 74.7549 271.759 59.0078Z" fill="#080033"/>
<path d="M132.531 163.105C135.969 165.724 138.35 168.992 139.09 173.303C139.214 175.006 139.167 176.716 139.14 178.423C139.136 178.885 139.133 179.347 139.129 179.809C139.121 180.932 139.107 182.054 139.09 183.176C139.253 183.172 139.416 183.168 139.584 183.165C139.799 183.162 140.014 183.159 140.236 183.156C140.448 183.152 140.661 183.149 140.88 183.145C142.554 183.228 143.846 184.169 144.993 185.31C145.842 186.66 146.365 187.984 146.375 189.585C146.378 189.902 146.378 189.902 146.38 190.224C146.381 190.453 146.382 190.682 146.383 190.918C146.384 191.161 146.386 191.405 146.388 191.655C146.393 192.459 146.396 193.264 146.399 194.068C146.4 194.343 146.401 194.619 146.402 194.903C146.408 196.361 146.412 197.819 146.414 199.277C146.417 200.779 146.427 202.281 146.437 203.783C146.444 204.941 146.446 206.099 146.447 207.258C146.449 207.811 146.452 208.364 146.457 208.918C146.463 209.695 146.463 210.472 146.461 211.249C146.466 211.588 146.466 211.588 146.472 211.933C146.456 213.799 146.028 215.606 144.812 217.072C142.509 219.239 139.989 219.625 136.918 219.604C136.406 219.607 136.406 219.607 135.883 219.609C134.954 219.614 134.025 219.612 133.096 219.609C132.119 219.606 131.141 219.609 130.164 219.61C128.524 219.612 126.884 219.61 125.244 219.605C123.353 219.599 121.463 219.601 119.573 219.607C117.943 219.612 116.314 219.612 114.684 219.609C113.714 219.608 112.743 219.608 111.773 219.611C110.69 219.615 109.608 219.61 108.525 219.604C108.208 219.606 107.89 219.608 107.563 219.61C104.967 219.584 102.78 219.029 100.844 217.236C99.6768 215.936 99.0795 214.515 99.0687 212.777C99.0668 212.564 99.0649 212.35 99.0629 212.13C99.0622 211.898 99.0615 211.666 99.0607 211.427C99.0589 211.181 99.0572 210.935 99.0554 210.682C99.0501 209.867 99.0469 209.053 99.0443 208.239C99.0432 207.96 99.0421 207.681 99.041 207.394C99.0354 205.919 99.0315 204.444 99.029 202.969C99.026 201.448 99.0168 199.928 99.0061 198.407C98.9991 197.236 98.9969 196.064 98.9959 194.892C98.9946 194.332 98.9915 193.771 98.9865 193.211C98.98 192.425 98.9802 191.639 98.9821 190.853C98.9787 190.624 98.9752 190.394 98.9717 190.158C98.9884 188.212 99.6203 186.754 100.634 185.11C101.98 183.808 103.202 183.141 105.093 183.139C105.513 183.149 105.933 183.16 106.353 183.176C106.348 182.896 106.342 182.617 106.336 182.329C106.317 181.273 106.304 180.218 106.294 179.163C106.289 178.709 106.282 178.256 106.272 177.803C106.168 172.62 107.229 168.683 110.873 164.781C116.673 159.264 125.96 158.549 132.531 163.105Z" fill="#8D5AC4"/>
<path d="M271.76 105.356C271.76 118.337 271.76 131.317 271.76 144.691C258.463 144.691 245.166 144.691 231.466 144.691C231.466 134.625 234.27 125.097 241.338 117.626C241.797 117.138 242.224 116.636 242.652 116.121C246.358 111.978 251.487 109.195 256.681 107.311C256.944 107.211 257.208 107.112 257.479 107.01C259.175 106.432 260.929 106.103 262.691 105.784C262.911 105.741 263.132 105.698 263.36 105.654C266.201 105.176 268.778 105.356 271.76 105.356Z" fill="#D96043"/>
<path d="M231.295 144.691C244.591 144.691 257.888 144.691 271.588 144.691C271.588 157.316 271.588 169.942 271.588 182.95C262.236 183.987 252.572 180.515 245.246 174.758C242.258 172.205 239.648 169.438 237.474 166.165C237.376 166.019 237.277 165.873 237.176 165.722C234.06 161.05 232.411 155.65 231.588 150.136C231.557 149.932 231.527 149.728 231.495 149.517C231.273 147.871 231.295 146.389 231.295 144.691Z" fill="#8D5AC4"/>
<path d="M224.875 163.119C225.743 163.82 226.553 164.562 227.349 165.345C227.54 165.533 227.732 165.721 227.929 165.915C231.167 169.296 233.32 174.134 233.317 178.85C233.317 179.337 233.317 179.337 233.318 179.834C233.317 180.191 233.316 180.547 233.315 180.904C233.315 181.282 233.315 181.66 233.315 182.038C233.315 183.061 233.314 184.085 233.312 185.108C233.31 186.179 233.31 187.249 233.31 188.32C233.309 190.346 233.307 192.372 233.305 194.398C233.302 196.705 233.3 199.012 233.299 201.319C233.297 206.063 233.292 210.808 233.287 215.553C233.205 215.553 233.123 215.553 233.039 215.553C233.039 204.452 233.039 193.352 233.039 181.916C226.263 181.916 219.486 181.916 212.504 181.916C212.772 188.616 213.259 194.107 215.72 200.218C215.824 200.481 215.928 200.744 216.035 201.015C216.258 201.575 216.482 202.134 216.71 202.691C215.939 203.462 213.764 203.226 212.751 203.248C206.911 203.196 201.677 200.931 197.502 196.863C192.751 191.874 191.102 185.896 191.173 179.188C191.217 177.46 191.457 175.906 191.968 174.249C192.058 173.955 192.148 173.661 192.241 173.358C192.851 171.522 193.586 169.901 194.69 168.313C194.957 167.927 194.957 167.927 195.23 167.533C198.501 162.976 203.087 160.439 208.493 159.258C214.345 158.546 220.06 159.601 224.875 163.119Z" fill="#080033"/>
<path d="M271.759 145.154C280.832 145.154 289.005 147.385 295.968 153.336C296.514 153.815 296.514 153.815 297.239 154.276C297.239 154.439 297.239 154.602 297.239 154.769C297.381 154.829 297.523 154.889 297.67 154.951C299.92 156.208 301.494 159.086 302.929 161.18C303.11 161.44 303.292 161.701 303.479 161.969C303.639 162.207 303.799 162.445 303.965 162.69C304.106 162.899 304.247 163.108 304.393 163.324C304.66 163.892 304.66 163.892 304.628 164.381C301.616 171.359 294.539 176.591 287.839 179.672C287.596 179.785 287.353 179.899 287.103 180.015C284.049 181.364 280.773 182.307 277.479 182.846C277.304 182.876 277.128 182.905 276.946 182.936C275.184 183.194 273.591 183.123 271.759 183.123C271.759 170.593 271.759 158.063 271.759 145.154Z" fill="#080033"/>
<path d="M212.497 181.743C219.355 181.743 226.213 181.743 233.28 181.743C233.295 184.135 233.31 186.528 233.326 188.993C233.336 190.512 233.346 192.031 233.356 193.549C233.373 195.958 233.389 198.367 233.404 200.776C233.415 202.531 233.427 204.286 233.439 206.04C233.446 206.968 233.452 207.896 233.457 208.825C233.462 209.7 233.468 210.576 233.475 211.452C233.479 211.922 233.481 212.392 233.483 212.862C233.499 214.696 233.598 216.506 233.78 218.332C227.033 216.346 220.957 209.546 217.495 203.796C217.053 203.014 217.053 203.014 216.503 202.509C216.092 201.648 215.757 200.755 215.408 199.867C215.306 199.61 215.205 199.353 215.1 199.088C214.338 197.121 213.713 195.173 213.248 193.115C213.195 192.891 213.142 192.667 213.088 192.436C212.303 188.89 212.497 185.372 212.497 181.743Z" fill="#05728C"/>
<path d="M294.454 82.1655C301.79 82.1655 309.127 82.1655 316.685 82.1655C316.685 89.8075 316.685 97.4495 316.685 105.323C309.349 105.323 302.013 105.323 294.454 105.323C294.454 97.6811 294.454 90.0391 294.454 82.1655Z" fill="#8D5AC4"/>
<path d="M271.759 59.4712C279.248 59.4712 286.737 59.4712 294.453 59.4712C294.453 66.9603 294.453 74.4495 294.453 82.1655C286.964 82.1655 279.475 82.1655 271.759 82.1655C271.759 74.6764 271.759 67.1873 271.759 59.4712Z" fill="#0BA960"/>
<path d="M127.594 167.891C129.835 169.317 131.138 171.172 131.972 173.712C131.972 176.814 131.972 179.916 131.972 183.112C125.867 183.112 119.762 183.112 113.472 183.112C113.472 171.866 113.472 171.866 116.058 169.131C119.262 166.276 123.858 165.828 127.594 167.891Z" fill="#F3F3F1"/>
<path d="M125.01 193.484C126.358 194.272 127.38 195.18 127.888 196.664C128.067 198.63 128.062 200.086 126.806 201.674C126.574 201.829 126.342 201.984 126.103 202.144C125.383 202.681 125.383 202.681 125.276 203.527C125.271 203.83 125.267 204.134 125.263 204.447C125.251 204.942 125.251 204.942 125.239 205.446C125.238 205.79 125.236 206.133 125.234 206.487C125.228 206.834 125.221 207.181 125.214 207.539C125.198 208.397 125.19 209.255 125.184 210.112C123.488 210.112 121.793 210.112 120.046 210.112C120.042 209.595 120.039 209.077 120.035 208.544C120.022 207.863 120.009 207.183 119.996 206.503C119.994 206.162 119.992 205.821 119.991 205.469C119.983 205.141 119.975 204.812 119.967 204.473C119.963 204.17 119.959 203.868 119.954 203.556C119.725 202.493 119.251 202.114 118.424 201.411C117.308 199.934 117.38 198.433 117.613 196.664C118.183 195.153 119.139 194.267 120.587 193.5C122.007 193.038 123.602 192.936 125.01 193.484Z" fill="#080033"/>
<path d="M132.472 163.112C133.803 163.509 134.563 164.498 135.472 165.567C135.389 165.747 135.307 165.927 135.222 166.112C135.107 165.978 134.992 165.843 134.874 165.704C134.721 165.53 134.567 165.355 134.409 165.175C134.258 165.001 134.108 164.827 133.952 164.647C133.447 164.18 133.119 164.041 132.472 163.93C132.472 163.66 132.472 163.39 132.472 163.112Z" fill="#05728C"/>
<path d="M37.0206 179.058C39.7083 180.527 40.9702 182.906 42.0638 185.674C42.1735 185.429 42.2831 185.184 42.3961 184.932C43.8639 181.802 45.368 179.806 48.6079 178.493C50.9936 177.697 53.5229 178.091 55.7752 179.118C58.1382 180.418 59.633 182.293 60.5445 184.818C61.1254 187.114 61.0513 189.402 59.9773 191.531C58.9673 193.06 57.6888 194.373 56.3985 195.666C56.7456 195.511 57.0926 195.356 57.4502 195.197C59.694 194.365 61.911 194.502 64.1367 195.339C66.8345 196.644 68.521 198.596 69.5597 201.388C70.3044 203.992 69.7625 206.399 68.5518 208.779C67.1267 210.843 65.3366 212.346 62.9426 213.15C59.1903 213.625 56.7779 212.919 53.5939 210.965C53.3215 210.802 53.0492 210.639 52.7686 210.472C52.2054 210.127 51.6516 209.768 51.1009 209.403C51.2367 209.529 51.3724 209.654 51.5123 209.783C53.5418 211.724 55.4739 213.875 55.561 216.799C55.5374 218.827 54.9243 220.247 53.4965 221.678C51.5803 222.883 49.9221 223.479 47.673 223.141C45.3143 222.456 44.139 220.821 42.9476 218.77C42.6871 218.146 42.6871 218.146 42.6871 216.897C42.4814 216.897 42.2757 216.897 42.0638 216.897C42.0293 217.125 41.9947 217.354 41.9591 217.59C41.5118 219.467 40.2776 221.075 38.7333 222.205C37.0323 223.234 35.5964 223.344 33.65 223.141C31.7128 222.575 30.3901 221.371 29.2873 219.707C28.4565 217.891 28.4059 216.353 29.0925 214.477C30.0717 212.658 31.6067 211.193 33.0267 209.716C32.7588 209.881 32.4909 210.047 32.2148 210.218C29.1652 212.062 25.794 213.945 22.1199 213.462C19.1792 212.618 16.8449 211.16 15.2667 208.506C14.1028 206.047 13.8374 203.345 14.5801 200.708C15.7174 198.169 17.6961 196.343 20.2112 195.197C22.9274 194.248 25.4268 194.579 28.0408 195.666C27.811 195.495 27.5812 195.324 27.3445 195.148C26.4571 194.395 25.8365 193.644 25.1583 192.699C24.9446 192.406 24.7308 192.113 24.5107 191.812C23.2138 189.747 23.5163 187.095 23.678 184.738C24.2277 182.451 26.1468 180.53 28.1004 179.319C31.0308 177.821 33.9958 177.666 37.0206 179.058Z" fill="#080033"/>
</g>
<defs>
<clipPath id="clip0_19194_4624">
<rect width="320" height="225.5" fill="white"/>
</clipPath>
</defs>
</svg>
