<svg width="60" height="30" viewBox="0 0 60 30" fill="none" xmlns="http://www.w3.org/2000/svg">
<rect width="60" height="30" fill="#080033"/>
<circle cx="12" cy="15" r="8" fill="#D96043"/>
<g clip-path="url(#clip0_19000_22880)">
<mask id="mask0_19000_22880" style="mask-type:luminance" maskUnits="userSpaceOnUse" x="22" y="7" width="16" height="16">
<path d="M38 7H22V23H38V7Z" fill="white"/>
</mask>
<g mask="url(#mask0_19000_22880)">
<path fill-rule="evenodd" clip-rule="evenodd" d="M30.8 7C31.2418 7 31.6 7.35817 31.6 7.8V9.20589C31.6 9.91861 32.4617 10.2755 32.9657 9.77157L33.9598 8.77746C34.2722 8.46504 34.7787 8.46504 35.0912 8.77746L36.2226 9.90883C36.535 10.2212 36.535 10.7278 36.2226 11.0402L35.2284 12.0343C34.7245 12.5383 35.0814 13.4 35.7941 13.4H37.2C37.6418 13.4 38 13.7582 38 14.2V15.8C38 16.2418 37.6418 16.6 37.2 16.6H35.7941C35.0814 16.6 34.7245 17.4617 35.2284 17.9657L36.2226 18.9598C36.535 19.2722 36.535 19.7787 36.2226 20.0912L35.0912 21.2226C34.7787 21.535 34.2722 21.535 33.9598 21.2226L32.9657 20.2284C32.4617 19.7245 31.6 20.0814 31.6 20.7941V22.2C31.6 22.6418 31.2418 23 30.8 23H29.2C28.7582 23 28.4 22.6418 28.4 22.2V20.7941C28.4 20.0814 27.5383 19.7245 27.0343 20.2284L26.0402 21.2226C25.7278 21.535 25.2212 21.535 24.9088 21.2226L23.7775 20.0912C23.465 19.7787 23.465 19.2722 23.7775 18.9598L24.7716 17.9657C25.2755 17.4617 24.9186 16.6 24.2059 16.6H22.8C22.3582 16.6 22 16.2418 22 15.8V14.2C22 13.7582 22.3582 13.4 22.8 13.4H24.2059C24.9186 13.4 25.2755 12.5383 24.7716 12.0343L23.7775 11.0402C23.465 10.7278 23.465 10.2212 23.7775 9.90883L24.9088 8.77746C25.2212 8.46504 25.7278 8.46504 26.0402 8.77746L27.0343 9.77157C27.5383 10.2755 28.4 9.91861 28.4 9.20589V7.8C28.4 7.35817 28.7582 7 29.2 7H30.8ZM30 19C32.2091 19 34 17.2091 34 15C34 12.7909 32.2091 11 30 11C27.7909 11 26 12.7909 26 15C26 17.2091 27.7909 19 30 19Z" fill="#8D5AC4"/>
</g>
</g>
<path d="M47.75 7.14746C48.2092 7.29305 48.2092 7.29305 48.6885 7.61627C49.1175 7.84798 49.5478 8.07728 49.979 8.30483C50.1992 8.42298 50.4194 8.54112 50.6463 8.66285C51.8368 9.1622 53.0636 9.43863 54.3199 9.72591C54.3374 10.9601 54.3501 12.1942 54.3585 13.4285C54.362 13.8478 54.3668 14.267 54.373 14.6862C54.3816 15.2914 54.3855 15.8964 54.3886 16.5017C54.3922 16.6868 54.3959 16.872 54.3996 17.0627C54.4001 18.7597 53.9936 20.2344 52.8387 21.534C52.7089 21.6857 52.5792 21.8374 52.4455 21.9937C51.8601 22.4774 51.2856 22.6283 50.5656 22.8525C50.5623 22.5529 50.5623 22.5529 50.559 22.2471C50.5486 21.5022 50.5342 20.7574 50.5169 20.0126C50.5103 19.691 50.5054 19.3693 50.502 19.0475C50.497 18.5837 50.4856 18.12 50.474 17.6563C50.4691 17.3776 50.4641 17.099 50.4591 16.8119C50.3078 15.9178 50.0208 15.5251 49.3924 14.8828C48.6346 14.2603 47.5523 14.2603 46.8114 14.6484C45.8847 15.1339 45.7104 15.6041 45.4036 16.5236C45.3683 17.0074 45.3453 17.492 45.3293 17.9768C45.3195 18.26 45.3097 18.5433 45.2995 18.8352C45.2903 19.1311 45.2811 19.4271 45.2716 19.732C45.2615 20.0307 45.2513 20.3294 45.2409 20.6371C45.216 21.3756 45.192 22.114 45.1689 22.8525C44.2349 22.4268 43.552 22.0349 42.8812 21.2557C42.7469 21.1043 42.6126 20.9529 42.4742 20.7969C41.5992 19.5105 41.5847 18.227 41.6035 16.7306C41.6042 16.5296 41.6048 16.3287 41.6055 16.1217C41.6081 15.4841 41.614 14.8465 41.62 14.2089C41.6224 13.7749 41.6245 13.3409 41.6264 12.9068C41.6316 11.8465 41.6397 10.7862 41.6493 9.72591C41.8866 9.66876 42.1238 9.61161 42.3682 9.55274C42.685 9.47325 43.0017 9.39362 43.3184 9.31387C43.4741 9.27676 43.6298 9.23965 43.7902 9.20142C45.1203 8.86158 46.1218 8.25822 47.2174 7.42765C47.3932 7.33519 47.5689 7.24272 47.75 7.14746Z" fill="#0BA960"/>
<defs>
<clipPath id="clip0_19000_22880">
<rect width="16" height="16" fill="white" transform="translate(22 7)"/>
</clipPath>
</defs>
</svg>
