<svg width="24" height="22" viewBox="0 0 24 22" fill="none" xmlns="http://www.w3.org/2000/svg">
<g clip-path="url(#clip0_18411_62931)">
<path d="M5.42835 2.2446C8.08819 4.2226 10.9492 8.23317 11.9996 10.3855C13.05 8.23333 15.9108 4.22256 18.5708 2.2446C20.49 0.817353 23.5996 -0.28697 23.5996 3.22704C23.5996 3.92884 23.1934 9.1225 22.9551 9.96567C22.127 12.8971 19.1094 13.6448 16.4251 13.1923C21.1171 13.9833 22.3107 16.6034 19.733 19.2236C14.8374 24.1998 12.6966 17.9751 12.1478 16.3801C12.0472 16.0877 12.0002 15.9509 11.9995 16.0672C11.9988 15.9509 11.9517 16.0877 11.8512 16.3801C11.3026 17.9751 9.16185 24.2 4.26597 19.2236C1.68821 16.6034 2.88177 13.9831 7.57385 13.1923C4.88953 13.6448 1.87185 12.8971 1.04385 9.96567C0.805606 9.12242 0.399414 3.92876 0.399414 3.22704C0.399414 -0.28697 3.50909 0.817353 5.42821 2.2446H5.42835Z" fill="#949494"/>
</g>
<defs>
<clipPath id="clip0_18411_62931">
<rect width="24" height="21" fill="white" transform="translate(0 0.5)"/>
</clipPath>
</defs>
</svg>
