<svg width="47" height="46" viewBox="0 0 47 46" xmlns="http://www.w3.org/2000/svg">
  <defs>
    <filter
      id="grain"
      filterUnits="objectBoundingBox"
      x="0"
      y="0"
      width="1"
      height="1"
      colorInterpolationFilters="sRGB"
    >
      <feTurbulence
        type="fractalNoise"
        baseFrequency="0.8"
        numOctaves="2"
        seed="3"
        stitchTiles="stitch"
        result="noise1"
      />
      <feTurbulence
        type="fractalNoise"
        baseFrequency="1.2"
        numOctaves="1"
        seed="7"
        stitchTiles="stitch"
        result="noise2"
      />
      <feBlend in="noise1" in2="noise2" mode="multiply" result="combinedNoise" />
      <feColorMatrix
        in="combinedNoise"
        result="coloredNoise"
        type="matrix"
        values="
        0.8 0 0 0 0.3
        0 0.6 0 0 0.2
        0 0 1.0 0 0.4
        0 0 0 0.8 0"
      />
      <feComposite
        in="coloredNoise"
        in2="SourceAlpha"
        operator="in"
        result="maskedNoise"
      />
      <feBlend in="SourceGraphic" in2="maskedNoise" mode="multiply" />
    </filter>
  </defs>

  <g filter="url(#grain)" fill="#787DFF">
    <path fill-rule="evenodd" clip-rule="evenodd" d="M14.75 0C15.6109 0 16.3751 0.55086 16.6474 1.36754L19.3311 9.41886L27.3825 12.1026C28.1991 12.3749 28.75 13.1391 28.75 14C28.75 14.8609 28.1991 15.6251 27.3825 15.8974L19.3311 18.5811L16.6474 26.6325C16.3751 27.4491 15.6109 28 14.75 28C13.8891 28 13.1249 27.4491 12.8526 26.6325L10.1689 18.5811L2.11754 15.8974C1.30086 15.6251 0.75 14.8609 0.75 14C0.75 13.1391 1.30086 12.3749 2.11754 12.1026L10.1689 9.41886L12.8526 1.36754C13.1249 0.55086 13.8891 0 14.75 0ZM14.75 8.32456L13.6474 11.6325C13.4483 12.2297 12.9797 12.6983 12.3825 12.8974L9.07456 14L12.3825 15.1026C12.9797 15.3017 13.4483 15.7703 13.6474 16.3675L14.75 19.6754L15.8526 16.3675C16.0517 15.7703 16.5203 15.3017 17.1175 15.1026L20.4254 14L17.1175 12.8974C16.5203 12.6983 16.0517 12.2297 15.8526 11.6325L14.75 8.32456Z"/>
    <path fill-rule="evenodd" clip-rule="evenodd" d="M14.75 0C15.6109 0 16.3751 0.55086 16.6474 1.36754L19.3311 9.41886L27.3825 12.1026C28.1991 12.3749 28.75 13.1391 28.75 14C28.75 14.8609 28.1991 15.6251 27.3825 15.8974L19.3311 18.5811L16.6474 26.6325C16.3751 27.4491 15.6109 28 14.75 28C13.8891 28 13.1249 27.4491 12.8526 26.6325L10.1689 18.5811L2.11754 15.8974C1.30086 15.6251 0.75 14.8609 0.75 14C0.75 13.1391 1.30086 12.3749 2.11754 12.1026L10.1689 9.41886L12.8526 1.36754C13.1249 0.55086 13.8891 0 14.75 0ZM14.75 8.32456L13.6474 11.6325C13.4483 12.2297 12.9797 12.6983 12.3825 12.8974L9.07456 14L12.3825 15.1026C12.9797 15.3017 13.4483 15.7703 13.6474 16.3675L14.75 19.6754L15.8526 16.3675C16.0517 15.7703 16.5203 15.3017 17.1175 15.1026L20.4254 14L17.1175 12.8974C16.5203 12.6983 16.0517 12.2297 15.8526 11.6325L14.75 8.32456Z"/>
    <path fill-rule="evenodd" clip-rule="evenodd" d="M40.3358 13.5858C41.6691 12.2525 43.8309 12.2525 45.1642 13.5858C46.4975 14.9191 46.4975 17.0809 45.1642 18.4142L31.1642 32.4142C29.8309 33.7476 27.6691 33.7475 26.3358 32.4142C25.0025 31.0809 25.0025 28.9191 26.3358 27.5858L40.3358 13.5858Z"/>
    <path fill-rule="evenodd" clip-rule="evenodd" d="M40.3358 13.5858C41.6691 12.2525 43.8309 12.2525 45.1642 13.5858C46.4975 14.9191 46.4975 17.0809 45.1642 18.4142L31.1642 32.4142C29.8309 33.7476 27.6691 33.7475 26.3358 32.4142C25.0025 31.0809 25.0025 28.9191 26.3358 27.5858L40.3358 13.5858Z"/>
    <path fill-rule="evenodd" clip-rule="evenodd" d="M15.1901 41.5878C16.2564 42.0159 17.375 42.0924 18.4949 41.6362C19.8562 41.0817 20.3319 40.1783 20.4519 39.1811C20.5194 38.6201 20.4602 38.043 20.3153 37.5535C20.1693 37.06 19.9944 36.8418 19.9796 36.8234C19.5488 36.3895 19.2668 36.2284 19.0871 36.1528C18.9117 36.079 18.6307 36 18.0832 36C17.9448 36 17.6913 36.0219 17.3727 36.0946C17.0821 36.1608 16.8122 36.2523 16.5957 36.351C16.582 36.4548 16.5684 36.5592 16.5544 36.6678C16.5251 36.8943 16.4934 37.1385 16.4526 37.4303C16.3636 38.0671 16.2374 38.862 16.0013 39.6665C15.8122 40.3107 15.5511 40.9617 15.1901 41.5878ZM12.1566 44.5152C14.2352 45.7779 16.9714 46.5759 20.0039 45.3406C25.75 43 25.1049 36.3084 22.8174 34.0041C21.3978 32.5741 20.0039 32.0001 18.0833 32C16.1627 31.9999 13.0609 33.0512 12.75 35C12.6824 35.4235 12.6287 35.8361 12.5767 36.2352C12.3073 38.3037 12.0848 40.0115 10.2304 41.0095C9.58315 41.3578 9.29891 42.2089 9.83028 42.7167C10.4451 43.3043 11.2105 43.9332 12.0977 44.4792C12.1172 44.4912 12.137 44.5033 12.1566 44.5152Z"/>
    <path fill-rule="evenodd" clip-rule="evenodd" d="M15.1901 41.5878C16.2564 42.0159 17.375 42.0924 18.4949 41.6362C19.8562 41.0817 20.3319 40.1783 20.4519 39.1811C20.5194 38.6201 20.4602 38.043 20.3153 37.5535C20.1693 37.06 19.9944 36.8418 19.9796 36.8234C19.5488 36.3895 19.2668 36.2284 19.0871 36.1528C18.9117 36.079 18.6307 36 18.0832 36C17.9448 36 17.6913 36.0219 17.3727 36.0946C17.0821 36.1608 16.8122 36.2523 16.5957 36.351C16.582 36.4548 16.5684 36.5592 16.5544 36.6678C16.5251 36.8943 16.4934 37.1385 16.4526 37.4303C16.3636 38.0671 16.2374 38.862 16.0013 39.6665C15.8122 40.3107 15.5511 40.9617 15.1901 41.5878ZM12.1566 44.5152C14.2352 45.7779 16.9714 46.5759 20.0039 45.3406C25.75 43 25.1049 36.3084 22.8174 34.0041C21.3978 32.5741 20.0039 32.0001 18.0833 32C16.1627 31.9999 13.0609 33.0512 12.75 35C12.6824 35.4235 12.6287 35.8361 12.5767 36.2352C12.3073 38.3037 12.0848 40.0115 10.2304 41.0095C9.58315 41.3578 9.29891 42.2089 9.83028 42.7167C10.4451 43.3043 11.2105 43.9332 12.0977 44.4792C12.1172 44.4912 12.137 44.5033 12.1566 44.5152Z"/>
  </g>
</svg>
