<svg width="91" height="90" viewBox="0 0 91 90" fill="none" xmlns="http://www.w3.org/2000/svg">
<path d="M44.9511 24.94C50.2744 24.94 54.5897 20.4763 54.5897 14.97C54.5897 9.46372 50.2744 5 44.9511 5C39.6279 5 35.3125 9.46372 35.3125 14.97C35.3125 20.4763 39.6279 24.94 44.9511 24.94Z" fill="black"/>
<path d="M16.0449 54.8404C21.3681 54.8404 25.6835 50.3767 25.6835 44.8704C25.6835 39.3641 21.3681 34.9004 16.0449 34.9004C10.7216 34.9004 6.40625 39.3641 6.40625 44.8704C6.40625 50.3767 10.7216 54.8404 16.0449 54.8404Z" fill="black"/>
<path d="M73.873 54.8404C79.1962 54.8404 83.5116 50.3767 83.5116 44.8704C83.5116 39.3641 79.1962 34.9004 73.873 34.9004C68.5497 34.9004 64.2344 39.3641 64.2344 44.8704C64.2344 50.3767 68.5497 54.8404 73.873 54.8404Z" fill="black"/>
<path d="M18.9667 27.94C24.29 27.94 28.6054 23.4763 28.6054 17.97C28.6054 12.4637 24.29 8 18.9667 8C13.6435 8 9.32812 12.4637 9.32812 17.97C9.32812 23.4763 13.6435 27.94 18.9667 27.94Z" fill="black"/>
<path d="M71.0449 27.8599C76.3681 27.8599 80.6835 23.3962 80.6835 17.8899C80.6835 12.3836 76.3681 7.91992 71.0449 7.91992C65.7216 7.91992 61.4062 12.3836 61.4062 17.8899C61.4062 23.3962 65.7216 27.8599 71.0449 27.8599Z" fill="black"/>
<path d="M44.9511 84.7505C50.2744 84.7505 54.5897 80.2868 54.5897 74.7805C54.5897 69.2743 50.2744 64.8105 44.9511 64.8105C39.6279 64.8105 35.3125 69.2743 35.3125 74.7805C35.3125 80.2868 39.6279 84.7505 44.9511 84.7505Z" fill="black"/>
<path d="M18.873 81.8297C24.1962 81.8297 28.5116 77.3659 28.5116 71.8596C28.5116 66.3534 24.1962 61.8896 18.873 61.8896C13.5497 61.8896 9.23438 66.3534 9.23438 71.8596C9.23438 77.3659 13.5497 81.8297 18.873 81.8297Z" fill="black"/>
<path d="M71.0449 81.8297C76.3681 81.8297 80.6835 77.3659 80.6835 71.8596C80.6835 66.3534 76.3681 61.8896 71.0449 61.8896C65.7216 61.8896 61.4062 66.3534 61.4062 71.8596C61.4062 77.3659 65.7216 81.8297 71.0449 81.8297Z" fill="black"/>
</svg>
