<svg width="91" height="90" viewBox="0 0 91 90" fill="none" xmlns="http://www.w3.org/2000/svg">
<g clip-path="url(#clip0_17413_8953)">
<path d="M45.4518 24.2C50.8445 24.2 55.2161 19.6781 55.2161 14.1C55.2161 8.52192 50.8445 4 45.4518 4C40.0591 4 35.6875 8.52192 35.6875 14.1C35.6875 19.6781 40.0591 24.2 45.4518 24.2Z" fill="black"/>
<path d="M25.9362 44.4002C31.3289 44.4002 35.7005 39.8783 35.7005 34.3002C35.7005 28.7221 31.3289 24.2002 25.9362 24.2002C20.5435 24.2002 16.1719 28.7221 16.1719 34.3002C16.1719 39.8783 20.5435 44.4002 25.9362 44.4002Z" fill="black"/>
<path d="M45.4538 36L6.40625 84.79H84.511L45.4538 36ZM45.4538 74.66C43.5226 74.66 41.6348 74.0676 40.029 72.9578C38.4233 71.848 37.1718 70.2706 36.4328 68.4251C35.6937 66.5796 35.5004 64.5488 35.8771 62.5896C36.2539 60.6304 37.1838 58.8307 38.5494 57.4182C39.915 56.0057 41.6548 55.0438 43.5489 54.6541C45.443 54.2644 47.4062 54.4644 49.1904 55.2288C50.9746 55.9933 52.4996 57.2878 53.5725 58.9487C54.6454 60.6097 55.2181 62.5624 55.2181 64.56C55.2219 65.8889 54.9722 67.2055 54.4832 68.4343C53.9942 69.6632 53.2756 70.7801 52.3685 71.7212C51.4614 72.6622 50.3837 73.4089 49.1972 73.9183C48.0106 74.4278 46.7385 74.69 45.4538 74.69V74.66Z" fill="black"/>
<path d="M64.9831 44.4002C70.3757 44.4002 74.7474 39.8783 74.7474 34.3002C74.7474 28.7221 70.3757 24.2002 64.9831 24.2002C59.5904 24.2002 55.2188 28.7221 55.2188 34.3002C55.2188 39.8783 59.5904 44.4002 64.9831 44.4002Z" fill="black"/>
</g>
<defs>
<clipPath id="clip0_17413_8953">
<rect width="78.1048" height="80.79" fill="white" transform="translate(6.40625 4)"/>
</clipPath>
</defs>
</svg>
