<svg width="24" height="24" viewBox="0 0 24 24" fill="none" xmlns="http://www.w3.org/2000/svg">
<g clip-path="url(#clip0_18446_66222)">
<mask id="mask0_18446_66222" style="mask-type:luminance" maskUnits="userSpaceOnUse" x="0" y="0" width="24" height="24">
<path d="M24 0H0V24H24V0Z" fill="white"/>
</mask>
<g mask="url(#mask0_18446_66222)">
<path fill-rule="evenodd" clip-rule="evenodd" d="M12.3772 0C12.6422 0 12.8572 0.214903 12.8572 0.48V5.12099C12.8572 5.64857 13.5846 5.78996 13.7822 5.3008L15.5207 0.997747C15.62 0.751954 15.8998 0.633203 16.1456 0.73251L16.845 1.01507C17.0908 1.11438 17.2096 1.39414 17.1102 1.63993L15.2568 6.22738C15.0608 6.7122 15.6714 7.11635 16.0412 6.7466L19.5397 3.24803C19.7273 3.06058 20.0311 3.06058 20.2186 3.24803L20.752 3.78139C20.9394 3.96884 20.9394 4.27276 20.752 4.46021L17.6102 7.60193C17.2352 7.97698 17.6558 8.59354 18.1418 8.38118L22.2132 6.60235C22.4562 6.49621 22.7392 6.6071 22.8452 6.85002L23.1473 7.54122C23.2534 7.78415 23.1425 8.06711 22.8996 8.17325L18.2081 10.223C17.7314 10.4312 17.8801 11.1429 18.4002 11.1429H23.52C23.7851 11.1429 24 11.3578 24 11.6229V12.3772C24 12.6422 23.7851 12.8572 23.52 12.8572H18.4003C17.8801 12.8572 17.7316 13.5688 18.2081 13.777L22.8996 15.8268C23.1425 15.9329 23.2534 16.2158 23.1473 16.4587L22.8452 17.1499C22.7392 17.3929 22.4562 17.5038 22.2132 17.3976L18.1418 15.6188C17.6558 15.4064 17.2352 16.023 17.6102 16.3981L20.752 19.5397C20.9394 19.7273 20.9394 20.0311 20.752 20.2186L20.2186 20.752C20.0311 20.9394 19.7273 20.9394 19.5397 20.752L16.0412 17.2534C15.6714 16.8836 15.0608 17.2878 15.2568 17.7726L17.1102 22.3601C17.2096 22.6058 17.0908 22.8856 16.845 22.9849L16.1456 23.2675C15.8998 23.3668 15.62 23.2481 15.5207 23.0022L13.7822 18.6992C13.5846 18.21 12.8572 18.3515 12.8572 18.879V23.52C12.8572 23.7851 12.6422 24 12.3772 24H11.6229C11.3578 24 11.1429 23.7851 11.1429 23.52V18.879C11.1429 18.3515 10.4154 18.21 10.2178 18.6992L8.47926 23.0022C8.37995 23.2481 8.10019 23.3668 7.8544 23.2675L7.15504 22.9849C6.90924 22.8856 6.7905 22.6058 6.8898 22.3601L8.74326 17.7726C8.93915 17.2878 8.32855 16.8836 7.9588 17.2534L4.46022 20.752C4.27277 20.9394 3.96884 20.9394 3.7814 20.752L3.24804 20.2186C3.06059 20.0311 3.06059 19.7273 3.24804 19.5397L6.38975 16.398C6.7648 16.023 6.3442 15.4064 5.85816 15.6188L1.78674 17.3976C1.54382 17.5038 1.26085 17.3929 1.15472 17.1499L0.852728 16.4587C0.746593 16.2158 0.857482 15.9329 1.1004 15.8268L5.79188 13.777C6.26849 13.5688 6.11982 12.8572 5.5997 12.8572H0.48C0.214903 12.8572 0 12.6422 0 12.3772V11.6229C0 11.3578 0.214903 11.1429 0.48 11.1429H5.59973C6.11983 11.1429 6.26851 10.4312 5.79191 10.223L1.1004 8.17325C0.857478 8.06711 0.74659 7.78415 0.852725 7.54122L1.15471 6.85002C1.26085 6.6071 1.54381 6.49621 1.78674 6.60235L5.85816 8.38118C6.3442 8.59355 6.7648 7.97698 6.38975 7.60193L3.24804 4.46022C3.06059 4.27277 3.06059 3.96884 3.24804 3.78139L3.78139 3.24804C3.96884 3.06059 4.27277 3.06059 4.46022 3.24804L7.9588 6.74662C8.32854 7.11636 8.93914 6.71221 8.74326 6.22739L6.8898 1.63993C6.7905 1.39414 6.90925 1.11438 7.15504 1.01507L7.85441 0.73251C8.10019 0.633203 8.37996 0.751954 8.47926 0.997747L10.2178 5.3008C10.4154 5.78996 11.1429 5.64857 11.1429 5.12099V0.48C11.1429 0.214903 11.3578 0 11.6229 0H12.3772ZM12 17.1428C14.8403 17.1428 17.1428 14.8403 17.1428 12C17.1428 9.15968 14.8403 6.85715 12 6.85715C9.15968 6.85715 6.85715 9.15968 6.85715 12C6.85715 14.8403 9.15968 17.1428 12 17.1428Z" fill="url(#paint0_linear_18446_66222)"/>
</g>
</g>
<defs>
<linearGradient id="paint0_linear_18446_66222" x1="2.46" y1="1.92" x2="12" y2="24" gradientUnits="userSpaceOnUse">
<stop stop-color="#ACAAFF"/>
<stop offset="1" stop-color="#C0E8FF"/>
</linearGradient>
<clipPath id="clip0_18446_66222">
<rect width="24" height="24" fill="white"/>
</clipPath>
</defs>
</svg>
