<svg width="24" height="24" viewBox="0 0 24 24" fill="none" xmlns="http://www.w3.org/2000/svg">
<g clip-path="url(#clip0_18446_66224)">
<mask id="mask0_18446_66224" style="mask-type:luminance" maskUnits="userSpaceOnUse" x="0" y="0" width="24" height="24">
<path d="M24 0H0V24H24V0Z" fill="white"/>
</mask>
<g mask="url(#mask0_18446_66224)">
<path fill-rule="evenodd" clip-rule="evenodd" d="M12.8572 0H11.1429V7.59037L8.29945 0.552698L6.70999 1.19488L9.62706 8.41487L4.12081 2.90862L2.90863 4.12081L8.18612 9.39829L1.34689 6.41017L0.660551 7.98107L7.89726 11.1429H0V12.8572H7.89725L0.660553 16.0189L1.34689 17.5898L8.18611 14.6017L2.90863 19.8792L4.12081 21.0913L9.62706 15.5851L6.70999 22.8052L8.29945 23.4473L11.1429 16.4096V24H12.8572V16.4096L15.7006 23.4473L17.29 22.8052L14.373 15.5851L19.8792 21.0913L21.0913 19.8792L15.8138 14.6017L22.6531 17.5898L23.3394 16.0189L16.1028 12.8572H24V11.1429H16.1027L23.3394 7.98107L22.6531 6.41017L15.8138 9.39829L21.0913 4.1208L19.8792 2.90862L14.373 8.41486L17.29 1.19488L15.7006 0.552698L12.8572 7.59037V0Z" fill="#E9B8FF"/>
</g>
</g>
<defs>
<clipPath id="clip0_18446_66224">
<rect width="24" height="24" fill="white"/>
</clipPath>
</defs>
</svg>
