<svg width="24" height="24" viewBox="0 0 24 24" fill="none" xmlns="http://www.w3.org/2000/svg">
<g clip-path="url(#clip0_18446_66223)">
<mask id="mask0_18446_66223" style="mask-type:luminance" maskUnits="userSpaceOnUse" x="0" y="0" width="24" height="24">
<path d="M24 0H0V24H24V0Z" fill="white"/>
</mask>
<g mask="url(#mask0_18446_66223)">
<path fill-rule="evenodd" clip-rule="evenodd" d="M0 0C3.3137 0 6 2.68628 6 6C2.6863 6 0 3.31372 0 0ZM12 0C8.6863 0 6 2.68628 6 6C2.6863 6 0 8.68628 0 12C0 15.3137 2.6863 18 6 18C2.6863 18 0 20.6863 0 24C3.3137 24 6 21.3137 6 18C6 21.3137 8.6863 24 12 24C15.3137 24 18 21.3137 18 18C18 21.3137 20.6863 24 24 24C24 20.6863 21.3137 18 18 18C21.3137 18 24 15.3137 24 12C24 8.68628 21.3137 6 18 6C21.3137 6 24 3.31372 24 0C20.6863 0 18 2.68628 18 6C18 2.68628 15.3137 0 12 0ZM18 18C18 14.6863 15.3137 12 12 12C12 15.3137 14.6863 18 18 18ZM12 12C15.3137 12 18 9.31372 18 6C18 9.31372 20.6863 12 24 12C20.6863 12 18 14.6863 18 18C14.6863 18 12 20.6863 12 24C12 20.6863 9.3137 18 6 18C9.3137 18 12 15.3137 12 12ZM12 12C8.6863 12 6 14.6863 6 18C6 14.6863 3.3137 12 0 12C3.3137 12 6 9.31372 6 6C6 9.31372 8.6863 12 12 12ZM12 12C12 8.68628 14.6863 6 18 6C14.6863 6 12 3.31372 12 0C12 3.31372 9.3137 6 6 6C9.3137 6 12 8.68628 12 12Z" fill="#E4FF97"/>
</g>
</g>
<defs>
<clipPath id="clip0_18446_66223">
<rect width="24" height="24" fill="white"/>
</clipPath>
</defs>
</svg>
